<svg version="1.2" xmlns="http://www.w3.org/2000/svg" viewBox="0 0 490 352" width="490" height="352">
	<title>bg-left-svg</title>
	<style>
		.s0 { fill: #2835bd } 
		.s1 { fill: #000000 } 
		.s2 { fill: #ffc619 } 
		.s3 { fill: none;stroke: #000000;stroke-linecap: round;stroke-linejoin: round;stroke-width: 2 } 
		.s4 { fill: #404eed } 
		.s5 { fill: #ffffff } 
		.s6 { fill: #de3a93 } 
		.s7 { fill: #ff78b9 } 
		.s8 { fill: none;stroke: #000000;stroke-linecap: round;stroke-linejoin: round;stroke-width: 8 } 
		.s9 { fill: none;stroke: #ffa8d2;stroke-linecap: round;stroke-linejoin: round;stroke-width: 3 } 
		.s10 { fill: none;stroke: #2835bd;stroke-linecap: round;stroke-linejoin: round;stroke-width: 8 } 
		.s11 { fill: #8cd9ff } 
		.s12 { fill: #5865f2 } 
		.s13 { fill: #121b80 } 
		.s14 { fill: #ffe75c } 
		.s15 { fill: #29cc7a } 
		.s16 { fill: none;stroke: #ffffff;stroke-linecap: round;stroke-width: 2 } 
		.s17 { fill: none;stroke: #000000;stroke-linecap: round;stroke-width: 4 } 
		.s18 { fill: #15ad75 } 
		.s19 { fill: #57f287 } 
		.s20 { fill: #3442d9 } 
		.s21 { fill: none;stroke: #000000;stroke-linecap: round;stroke-width: 2 } 
		.s22 { fill: none;stroke: #ffffff;stroke-linecap: round;stroke-width: 3 } 
		.s23 { fill: #66bcff } 
		.s24 { fill: #45aaf7 } 
		.s25 { fill: #c40655 } 
		.s26 { fill: #a3e1ff } 
		.s27 { fill: #ffa8d2 } 
		.s28 { fill: #287ceb } 
		.s29 { fill: none;stroke: #4150f2;stroke-linecap: round;stroke-width: 2 } 
		.s30 { fill: #ff8c19 } 
		.s31 { fill: none;stroke: #f551a0;stroke-linecap: round;stroke-linejoin: round;stroke-width: 2 } 
		.s32 { fill: #f551a0 } 
		.s33 { fill: #3f4eeb } 
	</style>
	<path id="Layer" class="s0" d="m430.4 351.4c-22.1-45.6-34.5-100.2-34.5-100.2l-1-5.3-44.5 5.3v100.2z"/>
	<path id="Layer" class="s1" d="m420.8 351.4c-19.4-40-30.2-87.9-30.2-87.9l-2.6-13.4-37.3 13.4v87.9z"/>
	<path id="Layer" class="s0" d="m427.8 218h-16.2v133.5h16.2z"/>
	<path id="Layer" class="s1" d="m427.8 235.3c-2.4 1.1-5.1 1.5-7.8 1.1-2.6-0.4-5.1-1.5-7.1-3.2l-1.3-1.1v-6l16.2-3.1z"/>
	<path id="Layer" class="s2" d="m403 351.4c11.1-2.7 26.2-17.4 26.2-17.4 0 0 5.3 11.4 8.4 17.4h11.2c1.2 0 2.4-0.2 3.5-0.7 1.1-0.5 2.1-1.2 2.9-2.1 0.8-0.9 1.4-2 1.8-3.1 0.4-1.2 0.5-2.4 0.4-3.6-0.5-4.9-2.8-10.4-6.3-18.4-5.9-13.3-7.8-20.3-19.3-20.3h-10.4l-24-10.6c-15.4 8.1-26 12.8-35.1 18.2-13.4 8.2-24 24.4-13.6 40.6z"/>
	<path id="Layer" class="s0" d="m234 263.5v87.9h121.8c19.4-40 30.2-87.9 30.2-87.9l2.9-12.3z"/>
	<path id="Layer" class="s1" d="m358.2 266.2l-124.2 11.6v73.6h92.9c9-20.5 31.3-85.2 31.3-85.2z"/>
	<path id="Layer" class="s3" d="m341.7 344.7c10.2-15.8 18.4-33 24.2-50.9"/>
	<path id="Layer" class="s4" d="m327.2 332.5c-5.1 0-10.1 2-13.7 5.7-3.7 3.6-5.7 8.6-5.7 13.7h38.8c0-5.1-2-10.1-5.7-13.7-3.6-3.7-8.6-5.7-13.7-5.7z"/>
	<path id="Layer" class="s0" d="m354.8 351.4c19.4-40 30.3-87.9 30.3-87.9z"/>
	<path id="Layer" class="s1" d="m392.3 351.3c-0.1-0.2-7-17.6-10.6-28.8l-0.2-0.7c-2.4-7.6-4.4-13.7-4.1-19.1l-1.7 0.9c0 5.4 1.9 11.4 4.3 18.7l0.2 0.7c3.3 10.2 9.2 25.5 10.4 28.4h1.7z"/>
	<path id="Layer" class="s5" d="m454.8 349c0.6-0.6 1.1-1.3 1.4-2.2 0.2-0.8 0.3-1.6 0.2-2.5-0.7-7.1-4.4-15.6-8.3-24.4l-4-9.4-1.5 0.6c1.3 3.2 2.7 6.3 4 9.4 4.7 10.7 9.2 21 8.2 28.5z"/>
	<path id="Layer" class="s2" d="m421.4 322.9c-1.9 7.8-4.6 17.5-8.1 28.5h-21c0 0-6.8-17.5-10.5-28.8-3.7-11.3-6.4-19.4-2.7-26.9 3.7-7.5 9.5-8.1 18.3-3.1l-1.3 14.2 6.7 19 3.1-10.1c6.6-4.3 14.9-1.9 15.5 7.2z"/>
	<path id="Layer" class="s5" d="m394.3 345.1l-1.7-4.9c-3.7-10.9-6.9-20.2-9.1-28.7-1.8-7-3.3-15.3-2.4-19q-1.1 1.3-1.9 2.9c0 5.4 1.8 12.9 2.7 16.5 2.3 8.6 5.5 17.9 9.2 28.8l1.7 5q1.1 3.1 2.1 5.7h1.8c-0.8-1.8-1.5-3.8-2.4-6.3z"/>
	<path id="Layer" class="s5" d="m409.5 351.4c2.3-7.7 5.6-19 9.9-33.6q0-0.2 0-0.3 0-0.2-0.1-0.3-0.1-0.2-0.2-0.3-0.1-0.1-0.3-0.1-0.1-0.1-0.3-0.1-0.2 0-0.3 0.1-0.2 0.1-0.3 0.2-0.1 0.1-0.1 0.3c-4.4 14.9-7.7 26.4-10 34.1z"/>
	<path id="Layer" class="s6" d="m417.6 261.4c-12.6-1.8-17.4-0.9-22.1 9.7-4.7 10.6-2.3 19.6 5.5 31 7.8 11.4 27 9.3 34.3 6.6 7.3-2.7 13.7-10 17.3-20.3 3.6-10.3 2.5-21.6-2.9-27.8-5.4-6.2-14.5-11.3-22.7-8.7-8.2 2.6-9.4 9.5-9.4 9.5z"/>
	<path id="Layer" class="s3" d="m423.7 276.3l-3.8-1"/>
	<path id="Layer" class="s3" d="m423.9 277.9l-3.9 0.5"/>
	<path id="Layer" class="s3" d="m451.5 276l3-2"/>
	<path id="Layer" class="s3" d="m451.3 277.7l3.1-0.5"/>
	<path id="Layer" class="s1" d="m413.5 251.2c-2.1 0-3.7 1.4-3.8 2.4-0.1 1 3.7 4.2 8.6 10.3l1.3-0.5c-4.6-11.8-4-12.3-6.1-12.2z"/>
	<path id="Layer" class="s3" d="m423.2 260.5c-3.8 2.4-8.2 5.7-8.2 5.7"/>
	<path id="Layer" class="s7" d="m421.4 322.9c1.2-5.1 2.1-9.4 2.6-12.7 1.4-8.6-1.2-10-5-11.1-3.8-1.1-6.5-3.2-8.3-9.7-1.8-6.5-2.9-6.4-5.1-5.3-2.4 1.3-4.5 3.2-6 5.4-1.2 2.1-1 4.5 1.3 10.4 1.5 3.7 4 6.9 7.1 9.4l-2.1 6.4c7.7-0.3 12.3 0.7 15.5 7.2z"/>
	<path id="Layer" class="s7" d="m433.9 318.9c-1.1-4.9-2.5-10.2 0-11.6 2.5-1.4 10.2-5 14.4-14.1q0.1-0.3 0.4-0.6 0.2-0.3 0.6-0.4 0.3-0.2 0.7-0.2 0.4 0.1 0.7 0.2h0.2q0.3 0.1 0.5 0.3 0.2 0.2 0.3 0.5 0.1 0.2 0.1 0.5 0 0.3-0.1 0.6-3.1 6.5-7.3 12.4 0.9 3.5 2.2 6.9c-4.6 2.3-12.7 5.5-12.7 5.5z"/>
	<path id="Layer" class="s1" d="m409.3 302.9q0.2-0.3 0.2-0.6 0-0.3-0.2-0.6-2.2-2.4-4-5.1c-1.9-3.3-3.7-9.2-2.4-10.7l-1.4 1.3q-0.3 0.4-0.5 0.8-0.2 0.5-0.1 1c0.5 2.9 1.5 5.8 3 8.4q1.8 3 4.2 5.5l0.6 0.2z"/>
	<path id="Layer" class="s3" d="m408.8 309.5q4.3-0.5 8.7-0.4"/>
	<path id="Layer" class="s3" d="m399.3 336.7l6.3-20"/>
	<path id="Layer" class="s3" d="m402.8 325.8l-6.1-17.5"/>
	<path id="Layer" class="s3" d="m434 319.7c1.8 9.7 5.7 23.3 5.7 23.3"/>
	<path id="Layer" class="s4" d="m352.9 326c-3.5 0-6.8 1.4-9.3 3.8-2.4 2.5-3.8 5.8-3.8 9.3v12.8h26.1v-12.8c0-3.5-1.4-6.8-3.8-9.2-2.4-2.5-5.7-3.9-9.2-3.9z"/>
	<path id="Layer" class="s4" d="m365.9 339.1c-1.7 0-3.4 0.3-4.9 0.9-1.6 0.7-3 1.6-4.2 2.8-1.2 1.2-2.2 2.6-2.8 4.2-0.7 1.5-1 3.2-1 4.9h25.7c0-3.4-1.3-6.7-3.7-9.1-2.4-2.4-5.7-3.7-9.1-3.7z"/>
	<path id="Layer" class="s8" d="m406 227.5l19.7-3.1"/>
	<path id="Layer" class="s9" d="m447.2 264.1l0.7 1.1"/>
	<path id="Layer" class="s9" d="m437.3 256.8c2.6 0.8 5 2.1 7 3.9"/>
	<path id="Layer" class="s10" d="m425.2 224.5c16.7-2.8 43.5-9 57.4-12.7"/>
	<path id="Layer" class="s3" d="m477.6 214.5l5.3 24.6"/>
	<path id="Layer" class="s11" d="m487.9 238.3v-3.2h-20.6v3.3q-0.1 0.7-0.4 1.3c-1 1.5-1.6 3.3-1.6 5.1v13.1c0 2.2 0.8 4.4 2.3 6 1.4 1.7 3.4 2.8 5.6 3.1 3 0.4 5.9 0.4 8.9 0 2.2-0.3 4.1-1.4 5.5-3.1 1.5-1.7 2.2-3.8 2.2-6v-13.1c0-1.8-0.5-3.6-1.5-5.1-0.3-0.4-0.4-0.9-0.4-1.4z"/>
	<path id="Layer" class="s12" d="m486 239.7v-4.1h-16.9v4.1c0 0.8-0.2 1.6-0.6 2.3-0.8 1.2-1.2 2.6-1.2 4v11.2c0 1.9 0.7 3.7 1.9 5.1 1.2 1.4 2.9 2.3 4.7 2.6q3.6 0.4 7.2 0c1.9-0.2 3.6-1.2 4.8-2.6 1.2-1.4 1.9-3.2 1.9-5.1v-11.2c0-1.4-0.4-2.8-1.1-4-0.4-0.7-0.7-1.5-0.7-2.3z"/>
	<path id="Layer" class="s11" d="m467.3 236.7c0 1.4 4.6 2.5 10.3 2.5 5.7 0 10.3-1.1 10.3-2.5l-10.3-4.1z"/>
	<path id="Layer" class="s3" d="m466.7 235.9q-0.1 0.2-0.2 0.5 0 0.3 0.1 0.5 0 0.3 0.2 0.5 0.2 0.2 0.4 0.3c1.7 1 5.7 1.7 10.4 1.7 4.7 0 8.7-0.7 10.4-1.7 0.3-0.2 0.5-0.5 0.6-0.8 0.1-0.3 0.1-0.7-0.1-1l-10.9-21.4z"/>
	<path id="Layer" class="s5" d="m476.6 258l-3.1-0.7q-0.5-0.2-0.7-0.6c-0.1-0.3-0.2-0.6-0.1-0.9 0.1-0.3 0.3-0.6 0.6-0.7q0.2-0.1 0.5-0.2 0.3 0 0.5 0.1 0.3 0 0.5 0.2 0.2 0.2 0.3 0.4z"/>
	<path id="Layer" class="s5" d="m476.6 258l-0.2-3.1q0-0.2 0.1-0.4 0-0.2 0.2-0.4 0.1-0.2 0.3-0.3 0.2-0.1 0.5-0.2 0.2 0 0.4 0.1 0.2 0.1 0.4 0.3c0.3 0.2 0.4 0.5 0.5 0.9 0 0.3-0.1 0.6-0.3 0.9z"/>
	<path id="Layer" class="s13" d="m477.2 260.9c-1.7 0.5-3.3 0-3.7-1.1-0.4-1.1 0.2-1.7 1.8-2.1q1.1-0.3 2-0.8c1.3-0.7 2 0.1 2.3 1 0.3 0.9-0.7 2.4-2.4 3z"/>
	<path id="Layer" class="s14" d="m474.1 257.9h-1.2c-0.8-0.1-1.5 0.6-1.5 1.4v0.1c0 0.8 0.7 1.5 1.5 1.5l1.2 0.1c0.8 0 1.5-0.7 1.5-1.5v-0.1c0-0.8-0.6-1.5-1.5-1.5z"/>
	<path id="Layer" class="s5" d="m479.8 246.2l2.8-1.5q0.3-0.3 0.5-0.7 0.1-0.2 0-0.5 0-0.2-0.1-0.4-0.1-0.2-0.3-0.4-0.2-0.1-0.4-0.2c-0.3-0.1-0.7 0-1 0.1-0.3 0.2-0.5 0.5-0.6 0.8z"/>
	<path id="Layer" class="s5" d="m479.8 246.2l-0.5-3.1q-0.2-0.5-0.5-0.8-0.4-0.2-0.9-0.1-0.5 0-0.8 0.4c-0.2 0.3-0.3 0.7-0.2 1 0.1 0.4 0.3 0.7 0.6 0.9z"/>
	<path id="Layer" class="s13" d="m480.6 245.8c1.4 1 2.1 2.6 1.4 3.5-0.7 0.9-1.5 1-2.8-0.1q-0.8-0.7-1.8-1.1-0.4-0.1-0.7-0.4-0.2-0.2-0.3-0.6-0.1-0.4 0-0.8 0.1-0.3 0.4-0.6c0.6-1 2.4-0.9 3.8 0.1z"/>
	<path id="Layer" class="s14" d="m479.9 249.4l0.7 1c0.5 0.6 1.4 0.8 2.1 0.3l0.1-0.1c0.7-0.4 0.8-1.4 0.3-2.1l-0.7-0.9c-0.5-0.7-1.4-0.8-2.1-0.4l-0.1 0.1c-0.6 0.5-0.8 1.4-0.3 2.1z"/>
	<path id="Layer" class="s11" d="m477.6 237.6c5.7 0 10.3-1.1 10.3-2.5 0-1.4-4.6-2.5-10.3-2.5-5.7 0-10.3 1.1-10.3 2.5 0 1.4 4.6 2.5 10.3 2.5z"/>
	<path id="Layer" class="s11" d="m488 235.1h-20.7v1.4h20.7z"/>
	<path id="Layer" class="s5" d="m481.8 235.9c-0.5 0.1-0.9 0.4-0.9 0.9q0 0.2 0.1 0.3 0.1 0.1 0.2 0.2 0.1 0.1 0.3 0.2 0.1 0 0.3 0l1.7-0.3q0.3-0.1 0.6-0.3 0.2-0.3 0.3-0.6 0-0.2-0.1-0.3-0.1-0.1-0.2-0.2-0.1-0.1-0.3-0.1-0.2 0-0.3 0z"/>
	<path id="Layer" class="s3" d="m477.6 214.5l-5.3 24.6"/>
	<path id="Layer" class="s3" d="m478.4 216.2l-2.6-5.6"/>
	<path id="Layer" class="s3" d="m477.8 216.5l0.3-6.4"/>
	<path id="Layer" class="s5" d="m449.7 281.4c3.3-3.8 2.8-6.1 1.7-6.8-1.1-0.7-2.8 0.6-5.8 5.4-3 4.8-0.5 6.6 4.1 1.4z"/>
	<path id="Layer" class="s5" d="m434 281.4c-2.2-4.6-6-7.9-9.5-7.4-3.5 0.5-2.1 5.7 2.5 9.2 4.6 3.5 9.4 3.2 7-1.8z"/>
	<path id="Layer" class="s1" d="m451.2 277.2c0.2-0.9 0.1-1.8-0.2-2.7-0.9-0.1-2.3 0.9-4.2 3.6 0.2 1.4 0.9 2.4 1.7 2.5 0.8 0.1 2.5-1.3 2.7-3.4z"/>
	<path id="Layer" class="s1" d="m434.1 281.7c0-0.1-0.1-0.2-0.1-0.3-1.1-2.3-2.7-4.3-4.7-5.9-0.6 1.1-0.8 2.4-0.7 3.7 0.2 2.7 1.6 4.8 3.2 4.7 0.6-0.1 1.1-0.3 1.5-0.7 0.4-0.4 0.7-0.9 0.8-1.5z"/>
	<path id="Layer" class="s3" d="m436 291.7c6.3-1.6 8.8-2.3 9.8-0.9 1 1.4 0.1 3-1.4 4.6 1.6 3.5 1.1 5.1-2 5.1-2.3-0.2-4.5-0.8-6.4-2"/>
	<path id="Layer" class="s3" d="m442.7 293.7q-0.6 1.6-1.6 2.9"/>
	<path id="Layer" class="s1" d="m14.6 351.4h10.4l7.8-23.8h-20.5z"/>
	<path id="Layer" class="s15" d="m145.7 351.4h-55.7c-35.8 0-56.4-10.3-71.8-22l-3.6 22h-9.1c0-105.6 13.6-205.8 13.6-205.8 2-11.3 23.5-16.4 50.2-7.1 26.7 9.3 33.8 21.2 32.8 32-1 10.8-9.5 83.6-12.7 117.7l5.7 6.2c2 2 3.4 4.5 4.3 7.2 0.8 2.7 1 5.6 0.5 8.4l-0.6 3.3c22 14.2 56 7.1 46.4 38.1z"/>
	<path id="Layer" class="s16" d="m30.2 165c-0.9 12.6-1.1 17.8-1.1 19.8q0 0.5 0.2 0.9 0.2 0.5 0.5 0.8c5.9 5.9 12.9 7.8 18.4 8.5q0.5 0.1 0.9-0.1 0.5-0.1 0.9-0.4 0.4-0.3 0.6-0.8 0.2-0.4 0.2-0.9l1.1-16"/>
	<path id="Layer" class="s17" d="m25.8 282.3c-3.3 0.1-6.6-0.7-9.5-2.3"/>
	<path id="Layer" class="s17" d="m17.5 286.9c4.3 0.6 9.6-1.3 9.6-1.3"/>
	<path id="Layer" class="s18" d="m76.8 215.1c-0.9 9-1.1 18.9 3.4 21.5 2.8 1.7 8.5 1.5 14.8-1.5 2.5-24.9 5.2-46.3 6.5-58.4l-29.8 4.9c-2.9 25.7-3.4 34.1 5.1 33.5z"/>
	<path id="Layer" class="s1" d="m97.5 178.7c4.8-10-8-26.1-28.6-35.9-20.6-9.9-41.1-9.7-45.9 0.3-4.8 10 8 26.1 28.6 35.9 20.6 9.9 41.2 9.7 45.9-0.3z"/>
	<path id="Layer" class="s19" d="m18.2 329.4c15.4 11.7 36 22 71.8 22h55.7c0.9-2.9 1.5-5.9 1.6-8.9-59.1 0-93.4-1.2-141-36.8-0.4 14.2-0.7 29.5-0.8 45.7h9.1z"/>
	<path id="Layer" class="s5" d="m22.2 279.1c2.6 10.1 9.7 17.8 15.9 17.2 6.2-0.6 6.4-6.4 4-16.1-0.6-2.6-1.1-5.1-1.6-7.7-1.8-9.2-6.3-13.2-11.8-12.7-5.5 0.5-9.2 9.3-6.5 19.3z"/>
	<path id="Layer" class="s5" d="m22.2 279.1c2.6 10.1 9.7 17.8 15.9 17.2 6.2-0.6 6.4-6.4 4-16.1-0.6-2.6-1.1-5.1-1.6-7.7-1.8-9.2-6.3-13.2-11.8-12.7-5.5 0.5-9.2 9.3-6.5 19.3z"/>
	<path id="Layer" class="s1" d="m38.5 279.2c1 4.4 0.3 8.3-1.4 8.6-1.7 0.3-3.8-2-4.5-7.5-0.7-5.5-0.3-8.5 1.4-8.5 1.7 0 3.6 2.9 4.5 7.4z"/>
	<path id="Layer" class="s18" d="m96.4 312.5q0.2 0 0.4-0.1 0.2-0.1 0.4-0.3 0.1-0.1 0.1-0.4 0.1-0.2 0-0.4c-2-10-8.1-11.4-19.4-8.8-11.3 2.6-15.8 3.6-18 4.4-2.2 0.8-1.2 1.3 13.7 3.6 7.5 1.3 15.2 1.9 22.8 2z"/>
	<path id="Layer" class="s1" d="m146.8 337.4c-11.1 0.1-29.6-0.1-47.8-1.3-33.8-2.3-64.9-14.9-92.5-37.4v1.8c27.6 22.3 58.6 34.8 92.4 37 17 1.2 34.2 1.4 45.5 1.4h2.7z"/>
	<path id="Layer" class="s12" d="m40.5 272.6c-1.8-9.2-6.3-13.2-11.8-12.7-5.5 0.5-7 4.6-7.4 10.5 6.2 2 12.7 2.7 19.2 2.2z"/>
	<path id="Layer" class="s1" d="m182.4 192.3l-33.3 18.6c0.6 0.5 1.3 0.9 2.1 1 0.7 0.1 1.5 0 2.2-0.4 1.9-0.8 6.5-5 8.3-6 1.8-1 6.9-3 9.4-4 3.1-1.2 6-2.9 8.6-4.9 2.2-1.8 3-2.5 2.7-4.3z"/>
	<path id="Layer" class="s20" d="m100.2 123.2c-6.1-3.8-6.4-3.7-9.8-9.8-3.4-6.1-7.7-9.1-12.7-9.8l6.2 44.9c13 3.8 21-2.8 22.8-9.3 1.8-6.5-0.3-12.2-6.5-16z"/>
	<path id="Layer" class="s20" d="m94.1 129.1c-1.7-7.3-6.2-15.8-11.5-22.2-1.9-2.3-3.2-5-3.9-7.9-0.7-2.9-0.8-6-0.1-8.9l2.2-10c1.5-6.9 0.7-14.2-2.3-20.6-3.1-6.4-8.2-11.6-14.6-14.8-3.7-1.8-7.6-2.9-11.7-3.1-7.7-0.6-15.2 1.9-21.1 6.8-5.9 4.9-9.6 12-10.4 19.6q-0.2 1.9-0.2 3.9v4.3l0.2 18c0.2 8.1-1.5 16.1-5 23.4-1.5 2.9-2.6 5.9-3.3 9.1l48.9 52c23.3-3.9 37.9-26.4 32.8-49.6z"/>
	<path id="Layer" class="s21" d="m61.4 178.7c23.2-3.9 37.8-26.4 32.7-49.6-1.6-6.9-5.7-14.9-10.6-21.1"/>
	<path id="Layer" class="s20" d="m78.5 130.6c4.6-7.6 6.4-6.6 14.6-4.4 6.6 1.7 14.2 15.2 4.1 22-10.1 6.8-30.7 2.7-18.7-17.6z"/>
	<path id="Layer" class="s1" d="m55.7 108.2c0.9-0.7 1.1-2.1 0.3-3-0.7-1-2-1.2-3-0.5-0.9 0.7-1 2-0.3 3 0.7 1 2.1 1.2 3 0.5z"/>
	<path id="Layer" class="s1" d="m68.3 109c0.9-0.7 1.1-2.1 0.3-3.1-0.7-0.9-2.1-1.1-3-0.4-0.9 0.7-1 2-0.3 3 0.7 1 2.1 1.2 3 0.5z"/>
	<path id="Layer" class="s22" d="m67 107.4c10.7 8.8 6.3 15.1 14.9 28.1"/>
	<path id="Layer" class="s2" d="m54.9 127.1c6.6-4.6 8.6-5.9 11.1-5.8l6.5 0.6-1.7 26.4-16.5-0.5z"/>
	<path id="Layer" class="s1" d="m86.9 120.4q0.2-0.5 0.1-1.1 0-0.6-0.4-1-0.3-0.5-0.7-0.8-0.5-0.3-1.1-0.3l-11-1.6c-0.8-0.1-1.6 0.1-2.3 0.5-0.6 0.5-1.2 1.1-1.4 1.9l-6.2 23q-0.2 0.5-0.1 1.1 0 0.6 0.4 1 0.3 0.5 0.8 0.8 0.4 0.3 1 0.3l11 1.6c0.8 0.1 1.6-0.1 2.3-0.5 0.6-0.5 1.2-1.1 1.4-1.9z"/>
	<path id="Layer" class="s1" d="m86.4 118.1l1.2 1.4-3.3 0.3z"/>
	<path id="Layer" class="s2" d="m91.8 133.3c-1.4-2.3-2.7-5.2-6.5-5.8l-0.5 4.8z"/>
	<path id="Layer" class="s5" d="m88 121.7q0.2-0.5 0.1-1.1-0.1-0.5-0.4-1-0.3-0.5-0.8-0.7-0.5-0.3-1-0.4l-11.1-1.6c-0.8-0.1-1.6 0.1-2.3 0.6-0.6 0.4-1.1 1-1.4 1.8l-6.2 23q-0.2 0.5-0.1 1.1 0.1 0.5 0.4 1 0.3 0.5 0.8 0.7 0.5 0.3 1 0.4l11.1 1.5c0.8 0.1 1.6 0 2.2-0.5 0.7-0.4 1.2-1 1.4-1.8z"/>
	<path id="Layer" class="s2" d="m84.6 130.8l4.5 0.7c0.9 0.1 1.7 0.6 2.3 1.3 0.6 0.7 0.9 1.6 0.8 2.5q0 0.7-0.4 1.4-0.3 0.6-0.8 1.1-0.6 0.4-1.3 0.6-0.7 0.2-1.4 0.1l-3.3-0.5c-1-0.1-2-0.6-2.7-1.4-0.7-0.7-1.2-1.7-1.3-2.7q0-0.7 0.2-1.3 0.3-0.7 0.8-1.1 0.6-0.5 1.2-0.7 0.7-0.1 1.4 0z"/>
	<path id="Layer" class="s2" d="m83.1 137.5l3.1 0.5q0.8 0.1 1.5 0.5 0.6 0.4 1.1 1.1 0.4 0.7 0.5 1.5 0.1 0.7-0.1 1.5c-0.2 0.8-0.7 1.5-1.4 1.9-0.7 0.5-1.6 0.7-2.4 0.5l-1.9-0.3c-1-0.1-2-0.6-2.7-1.4-0.8-0.7-1.3-1.7-1.4-2.7q0-0.7 0.2-1.4 0.3-0.6 0.9-1.1 0.5-0.4 1.2-0.6 0.7-0.2 1.4 0z"/>
	<path id="Layer" class="s2" d="m73.4 148.9l-10.8-1.5 0.5-4.4 10.8 1.6z"/>
	<path id="Layer" class="s2" d="m76 131.4l-6.8-1q-0.5-0.1-0.9-0.4-0.4-0.3-0.5-0.8l-0.6-1.8-0.5-3.7-3.7 13 11 1.6c1 0.1 2.1-0.1 3-0.6 0.8-0.5 1.5-1.3 1.9-2.3q0.2-0.7 0-1.4-0.1-0.7-0.5-1.3-0.4-0.6-1.1-0.9-0.6-0.4-1.3-0.4z"/>
	<path id="Layer" class="s2" d="m73.8 138.2l-10.8-1.5 0.5 7.2 8.3 1.2c1 0.2 2-0.1 2.9-0.6 0.9-0.5 1.6-1.3 1.9-2.3q0.2-0.7 0.1-1.4-0.1-0.7-0.5-1.3-0.4-0.6-1.1-0.9-0.6-0.4-1.3-0.4z"/>
	<path id="Layer" class="s23" d="m150.4 182.3c0.3-10.8-8.6-12.5-14.7-16.3-6.1-3.8-13.3-11.8-20.8-17.2-7.5-5.4-14-5.3-26.7-1.4l14.5 28.2c8.2 4.2 10 8.8 14.4 15 4.4 6.2 10.3 8.6 16.2 7.5 3.1 5.1 3.7 6.3 8.2 4.7 4.5-1.6 11.9-5 13.9-10.9 2-5.9-0.9-6.9-5-9.6z"/>
	<path id="Layer" class="s24" d="m142.9 199.4c-3.8-0.9-5.3-3-7.7-6.3l-2.1-2.8c-10.3-2.1-14.5-7.6-16.8-11.6-1.1-1.9-3.1-3.4-5-4.8-1.9-1.4-3.8-2.9-4.9-4.7q-1.2-2-2.2-4.2c-0.8-2.1-1.5-3.5-2.8-3.9-1.3-0.4-3.5 0.4-5.6 1.3q-2.9 1.4-6 2-0.3 0-0.5-0.1-0.2-0.1-0.3-0.4 0-0.3 0.2-0.5 0.1-0.2 0.4-0.3c2-0.3 3.8-1 5.6-1.9 2.4-1 4.4-1.9 6.5-1.3 2.1 0.6 2.8 2.4 3.7 4.6 0.9 2.2 1.2 2.6 2 4 1.3 1.7 2.9 3.1 4.7 4.3 2 1.6 4.1 3.2 5.3 5.3 2.3 4.1 6.3 9 16.2 11h0.2l0.2 0.2c0.9 1.1 1.6 2.2 2.3 3.1 2.2 3.1 3.6 5 6.8 5.8q0.1 0 0.3 0 0.1 0.1 0.1 0.2 0.1 0.1 0.1 0.2 0.1 0.2 0 0.3 0 0.1 0 0.3-0.1 0.1-0.2 0.1-0.1 0.1-0.2 0.1-0.2 0.1-0.3 0z"/>
	<path id="Layer" class="s21" d="m102.1 159c-1.3 4.3-2.2 8.7-2.6 13.2"/>
	<path id="Layer" class="s11" d="m108 211c-9.1 8.2-16.8 5.9-20.4 5.5-3.6-0.4-3.2-3-3.5-5.2-0.3-2.2-0.5-5.5-0.5-5.5-9.1-0.6-10.2-6.8-10.4-12.3-0.2-5.5-1.6-6.3-2.3-10.2-11-2-21.3-6.4-30.3-13.1-9-6.6-16.3-15.2-21.4-25.1l9.5-6.9 21.2 13.8c14.3-5.3 22.2-8 29.9-8.5 7.7-0.5 15.3 2.4 17.8 13.1 2.5 10.7 2.8 14 5.1 19.1 0.6 1.3 1.6 3.1 2.6 5 2.8 5.7 5.7 13.7 0 22.4q1 4.1 2.7 7.9z"/>
	<path id="Layer" class="s1" d="m34.7 165.3c-0.3-7.1 2.4-12.1 7.3-12.9l-12.4-8.6-9 3.9c2.3 6.4 8.2 13.4 14.1 17.6z"/>
	<path id="Layer" class="s23" d="m90.6 212.9l0.2-1.3c-1.8-0.3-1.9-1.6-2.4-7.7v-0.8l-0.4-0.2c-4-1-6.7-3.4-6.9-11.5 0-3.8-0.8-7.7-2.3-11.2q-0.6-1.3-0.9-2.6c-0.2-0.8-0.5-1.6-0.7-2.3-1.1-2.8-1.4-5.9-0.9-8.9 0.4-3.1 0.1-4.8-0.9-5.7-1-0.9-3.5-0.6-7.2 0.6h-0.5c-5.9 1.9-17.7 5.8-29.6 6.8l1.5 1.1c11.6-1.1 22.8-4.8 28.5-6.6l0.5-0.2c3-1 5.1-1.5 6-0.8 0.9 0.7 0.7 2 0.4 4.5-0.5 3.2-0.2 6.5 1 9.5q0.4 1.1 0.6 2.2c0.3 0.9 0.6 1.8 1 2.7 1.4 3.4 2.2 7.1 2.2 10.8 0.2 7.5 2.3 11.2 7.4 12.7 0.4 6.1 0.6 8.4 3.4 8.9z"/>
	<path id="Layer" class="s20" d="m55.1 125.7c-2.9-2.5-5.1-2.3-8.6-0.8-3.7-3.4-8.5-3.9-13.5-2.2-5 1.7-12.7 4-17.2 5.2q-0.4 0.1-0.8 0.1-0.4-0.1-0.7-0.4-0.3-0.3-0.4-0.7 0-0.4 0.1-0.8l3.3-12c-10.7 8-14.2 25.1-10.8 34.4 3.4 9.3 18.2 9.2 22.9 6.6 4.7-2.6 6.3-3.4 11.7-2.4 5.4 1 9.6 1.7 16.7-3.7l4.2-1.4c1.6-9.1 0.2-15.7-6.9-21.9z"/>
	<path id="Layer" class="s21" d="m55.1 125.7c-2.9-2.5-5.1-2.3-8.6-0.8-3.7-3.4-8.5-3.9-13.5-2.2-5 1.7-12.7 4-17.2 5.2"/>
	<path id="Layer" class="s21" d="m46.5 124.9c3 2.3 5.5 5.2 7.3 8.5 1.9 3.3 3 6.9 3.4 10.7"/>
	<path id="Layer" class="s15" d="m76.8 121.9q0.1-0.2 0-0.4 0-0.2-0.1-0.4-0.1-0.2-0.3-0.3-0.2-0.2-0.4-0.2h-1q-0.4-0.1-0.8 0.1-0.4 0.3-0.5 0.7l-0.9 3.3q-0.1 0.2 0 0.5 0 0.2 0.1 0.4 0.2 0.2 0.4 0.3 0.2 0.1 0.4 0.1h1q0.4 0 0.7-0.2 0.4-0.2 0.5-0.6z"/>
	<path id="Layer" class="s2" d="m60.8 102.7c0.8-1.6 1.9-2.9 3.3-3.9 1.4-1.1 3.1-1.7 4.8-2 0.2 0 0.3-0.2 0.2-0.3-1.3-4.8-0.7-7.5 1-11q0 0 0-0.1 0 0 0-0.1 0 0 0-0.1-0.1 0-0.1 0c-5.6-2.4-7.7-6.4-8.3-9.4-0.1-0.2-0.4-0.3-0.5-0.1-2.5 5-5.9 5.2-8.8 4.8-0.2 0-0.3 0.2-0.2 0.3 2.9 5.6 0.8 9.6-2.1 12.4q0 0.1 0 0.1 0 0.1 0 0.1 0 0.1 0.1 0.1 0 0.1 0.1 0.1c5.6 1 8.6 4.7 10 9 0.1 0.2 0.4 0.3 0.5 0.1z"/>
	<path id="Layer" class="s21" d="m73.8 138.2l-5.7-0.8"/>
	<path id="Layer" class="s21" d="m84.2 137.9l3.2 0.5"/>
	<path id="Layer" class="s21" d="m61.5 75.6c2.5-5.6 2.3-9.5 1.6-11.7"/>
	<path id="Layer" class="s21" d="m69.5 85.4c1.6 0.2 3.2 0.1 4.7-0.3 1.5-0.4 2.9-1.2 4.1-2.2"/>
	<path id="Layer" class="s21" d="m60.8 102.7q0 1.1-0.3 2.2"/>
	<path id="Layer" class="s21" d="m50.6 93.3c-3.7 2.6-9.3 2.2-13.2 1"/>
	<path id="Layer" class="s21" d="m52.4 80.5c-1.4-2.9-4-6.2-6.4-7.3"/>
	<path id="Layer" class="s21" d="m69.1 96.5q1.9 1 4.1 1.5"/>
	<path id="Layer" class="s25" d="m58.4 85.8c1.7 6.6 3.9 6.2 4.9 4.2 1-2 1.7-4.5 3.3-4.3 1.6 0.2 1.2 3-0.7 7-1.9 4-5 4.9-7.9 1.4-2.9-3.5-3-6.9-3.1-9.3-0.1-2.4 2.4-3 3.5 1z"/>
	<path id="Layer" class="s22" d="m54.4 106.6c1.2 13.8-5.8 20.4-8 34.1"/>
	<path id="Layer" class="s21" d="m70.1 183.4c-1.8-5.9-2.6-16.7 2.3-26.2"/>
	<path id="Layer" class="s21" d="m69 168.7c-1.1-2.2-1.7-4.6-1.6-7.1"/>
	<path id="Layer" class="s21" d="m19.7 126.8l-7.4 2.4"/>
	<path id="Layer" class="s21" d="m93.2 125.9l5 1.4"/>
	<path id="Layer" class="s2" d="m182.4 192.2q-0.8 1.2-1.9 2.2c-3.2 3.2-10.5 6.8-14.4 8.3-3 0.9-5.7 2.5-8 4.6-2.9 2.3-6.5 5.4-9 3.6q-4.7-4.4-8.6-9.5-0.2-0.3-0.3-0.6 0-0.4 0.1-0.7c1.4-4 5.9-9.7 12.4-12.7q0.3-0.1 0.7-0.1 0.3 0.1 0.6 0.3c3.8 2.7 6.1 3.4 9.2 3.3 3.1-0.1 9.1-2.1 14-3.5 4.9-1.4 5 0.8 5.2 4.8z"/>
	<path id="Layer" class="s14" d="m143.3 204.9q2.7 3.2 5.8 6c2.5 1.8 6.1-1.3 9-3.6 2.3-2.1 5-3.7 8-4.6 3.9-1.5 11.2-5.1 14.4-8.3q1.1-1 1.9-2.2c-0.2-4-1.1-6-5.2-4.8-4.1 1.2-6.4 2.2-9.4 2.9-0.9 0.2-1.7 0.7-2.3 1.4-0.7 0.7-1.1 1.5-1.3 2.4-0.1 1.1-0.3 2.2-0.5 3.5-5.4-1.1-10.6 0.7-11.7 7.8 0 0-4.6-2.5-8.7-0.5z"/>
	<path id="Layer" class="s5" d="m180.5 194.4l1.9-2.1q0.2-0.3 0.2-0.7-0.1-1.1-0.6-2.2c-0.8 1.5-2.2 3-5.3 5.3-4.9 3.6-10.4 4.9-13.7 6-3 1.1-5.8 2.9-8.1 5.1-1.8 2.1-4.2 3.5-6.9 4.2l1.1 0.9c2.5 1.8 6.1-1.3 9-3.6 2.3-2.1 5-3.7 8-4.6 3.9-1.5 11.2-5.1 14.4-8.3z"/>
	<path id="Layer" class="s2" d="m119.5 198.9c-5.1-1.4-10.3 1-14.9 9.7-1.3-1-4.5-2.1-9.3-1.2-4.8 0.9-6.6 3-7.4 4.6-0.5 0.9-0.6 2-0.4 3 0.3 1.3 0.7 3 1.3 5.8 0.9 4.3 0.4 8.1 2.8 8.5l33.6-24.2c0 0 0.9-4.4-5.7-6.2z"/>
	<path id="Layer" class="s14" d="m119.5 198.9c-5.1-1.4-10.3 1-14.9 9.7q-1 2-1.7 4c-5.3-0.5-7.8 1.8-8.7 6.9 0 0-3.5-2.4-5.6 0.4 0.1 0.3 0.1 0.6 0.2 0.9 0.9 4.3 0.4 8.1 2.8 8.5l33.6-24.2c0 0 0.9-4.4-5.7-6.2z"/>
	<path id="Layer" class="s5" d="m125.2 203.7l-2.5-2.3c-4.3-0.7-7.9-0.8-11.7 3.5-3.8 4.3-6.3 9-10.3 11.8-5.7 4.2-10.5 5.9-11.2 9-0.7 3.1 0.7 3.4 2.1 3.6l33.6-24.2q0.2-0.7 0-1.4z"/>
	<path id="Layer" class="s5" d="m120.9 199.9l2.4 0.7q0.3 0.1 0.6 0.2 0.2 0.2 0.4 0.5c0.9 1.6 1.3 3.4 1.1 5.2l-8.8-1.6c2.9-1.4 3.9-2.7 3.6-4.4q0-0.1 0-0.3 0-0.1 0.2-0.2 0.1-0.1 0.2-0.1 0.2-0.1 0.3 0z"/>
	<path id="Layer" class="s1" d="m91.8 229.4c8.6 1.7 12.4-1 16.1-4.8 1.5-1.7 3.3-3.1 5.3-4.3 5.1-2.9 9.1-6 11.8-10.9 2.7-4.9-5.6-8.1-11-3.6-5.4 4.5-5.7 9.8-16.4 16.4-7.3 4.6-8.3 6.7-5.8 7.2z"/>
	<path id="Layer" class="s5" d="m93 213.8c0.1-1-0.4-1.8-1-1.9-0.6 0-1.1 0.8-1.2 1.8 0 1 0.4 1.8 1 1.8 0.6 0.1 1.2-0.7 1.2-1.7z"/>
	<path id="Layer" class="s5" d="m182.7 191q-0.3-1.5-1-2.9c-0.1-0.1-0.2-0.2-0.3-0.1h-0.1c-0.2 0-0.2 0.1-0.2 0.2 0.5 2.1 0.7 4.5-0.4 5.9 2.3-1.8 2.1-2.8 2-3.1z"/>
	<path id="Layer" class="s5" d="m147 201.6c0.9-0.2 1.4-1.5 1.1-2.9-0.3-1.4-1.3-2.3-2.2-2.1-0.9 0.2-1.4 1.5-1.1 2.9 0.3 1.4 1.3 2.3 2.2 2.1z"/>
	<path id="Layer" class="s23" d="m222 351.4c42.3 0 77-17.6 122.6-57.8 45.6-40.2 61.6-53.4 74.5-65.9 12.9-12.5 12-20.6 5.3-36.6-6.7-16-11.1-13.7-11.1-13.7-0.8-13-13.5-34.5-27.5-51.8-14-17.3-22.4-14.5-37.8-14.5-15.4 0-20.5 4.2-27.4 22.6-6.9 18.4-24.1 34-56.6 39.7-32.5 5.7-50.3 5.4-51.2 21.7-0.9 16.3 0 44.4-14.4 66.6-17.9 8.7-36.7 15.3-56.1 19.7-11.4 2.6-13.8 10.1-14.9 19.9-1.1 9.8 2.9 15.1 4.8 18.2-3.9 3.7-3.1 5.3-1.2 14 0.8 3.5 1.7 7 2.5 10.1 0.7 2.3 2 4.2 3.9 5.6 1.9 1.4 4.2 2.2 6.5 2.2z"/>
	<path id="Layer" class="s24" d="m127.4 301.3c-1.1 9.8 2.9 15.1 4.8 18.2l78.3 9 75.8-11.1c0 0 50-40.3 43.2-53.7-6.8-13.4-21.1-0.8-40.2 12.2-19.1 13-38.9 14.2-61.6 10.9-22.7-3.3-50.2-13-85.4-5.4-11.4 2.6-13.8 10.1-14.9 19.9z"/>
	<path id="Layer" class="s26" d="m337.6 257c0.1-17.3-0.5-21.4 5.3-20.6 5.8 0.8 15.3 2.7 15.3 2.7l-10.3 16.3z"/>
	<path id="Layer" class="s26" d="m368 230.1c0-8.4-0.7-13.9 1.6-15.1 2.3-1.2 5 0.3 9.8 4.6 4.8 4.3-11.4 10.5-11.4 10.5z"/>
	<path id="Layer" class="s26" d="m137.2 317.4c-1.3-10.1-1-18.1 1.7-20.1 2.7-2 5.3 2.6 7.2 6.6 2.4 5.1 5.4 9.8 9 14.2z"/>
	<path id="Layer" class="s26" d="m224 319.6c3.3-13.5 6.1-16.8 8.9-17 2.8-0.2 4.2 6.2 8.2 15.3l-6.6 3.1z"/>
	<path id="Layer" class="s5" d="m404 196.1c-42.5 41.1-67.9 63.7-103.5 90.2-35.6 26.5-51.5 33.4-81.4 33.4-29.9 0-49.1-16.8-86.9-0.2-3.9 3.7-3.1 5.3-1.2 14 0.8 3.5 1.7 7 2.5 10.1 0.7 2.3 2 4.2 3.9 5.6 1.9 1.4 4.2 2.2 6.5 2.2h78.1c42.3 0 77-17.6 122.6-57.8 45.6-40.2 61.6-53.4 74.5-65.9 12.9-12.5 12-20.6 5.3-36.6-6.7-16-11.1-13.7-11.1-13.7 0 4.5 0.3 9.3-9.3 18.7z"/>
	<path id="Layer" class="s14" d="m424.9 192.2c-0.1 5.8-3.7 12.4-13.5 21.4-19.2 17.5-58.9 53.3-86.2 76.5-29.9 25.7-57.7 46.9-94.7 46.9-12.9 0-27-2.7-40.7-5.3-24.1-4.6-47-8.9-58.6 2.7 0.1 0.6 0.3 1.3 0.4 1.9 10.8-11.9 33.7-7.6 57.9-3 13.8 2.6 28 5.3 41 5.3 37.5 0 66.7-22.4 95.7-47.2 27.3-23.3 67.1-59.2 86.2-76.6 7.2-6.6 12.4-12.7 13.7-19.4z"/>
	<path id="Layer" class="s1" d="m313 319l-13.9-31.6q-8 5.9-14.7 10.5l-1.2 1.4c5.2-2.2 10.4 0.7 10.8 9.6 0.1 4.8 0.1 14.5 0.1 22.3q9.8-5.6 18.9-12.2z"/>
	<path id="Layer" class="s1" d="m149.7 343.4c-8 0.1-11.9 3.3-8.7 6.4 1.2 1.1 2.7 1.7 4.3 1.6h68.7c-34.2 0-37.7-8.4-64.3-8z"/>
	<path id="Layer" class="s24" d="m385.3 166.9c-10.3 13.2-13.9 18.4-9.6 32.5 1.8 6.1 4.1 12.6 6 18l22.3-21.3c9.6-9.4 9.3-14.2 9.3-18.7-0.7-11.1-10-28.4-21.5-44 5.8 8.4 3.8 20.3-6.5 33.5z"/>
	<path id="Layer" class="s11" d="m371.6 150.1c5.9-22.5 5.3-37.5-9.2-39-4.3-0.4-8.9 0-14.4 0-15.5 0-20.5 4.2-27.4 22.6-6.9 18.4-24.1 34-56.6 39.7-32.5 5.7-50.3 5.4-51.2 21.7-0.9 16.3 0 44.4-14.4 66.6-2.1 3.7 0.4 6.2 30.3 6.2 29.9 0 47.7-1.8 52.7-14.3 5-12.5 12.2-39.8 15.8-50.6 3.6-10.8 3-17 22.9-21.5 19.9-4.5 45.9-9.7 51.5-31.4z"/>
	<path id="Layer" class="s1" d="m302.5 178.7c16-6.6 27.3-5.1 44.3-13.2 17-8.1 19.2-14.1 21.3-25.2 2.1-11.1 3.6-24.2-6.7-25.1-10.3-0.9-19.6-0.5-24.3 1.1-4.7 1.6-5.9 4.5-11 15-5.1 10.5-7.6 26.1-30.5 36.3z"/>
	<path id="Layer" class="s26" d="m167.7 312.4c0.1 5.1 1.5 12.4 4.3 13.1 2.8 0.7 4.1-5 7-12.1-3.1-3.2-11.3-6.5-11.3-1z"/>
	<path id="Layer" class="s7" d="m295.3 289.2c-2.5 0.1-4.9 0.8-7.1 1.9-9.3 4.7-9.2 8.7-8.9 10.1 12.7-7.7 18.3 0.8 21.9 25.7 1.4 9.8 3.9 14.6 11.1 14.6 8.8 0 14-6.2 13.4-22.2q-0.2-4.5-1-9c-2.5-13.4-7.7-26.9-20.3-26.9-1.9 0.1-3.7 0.7-5.3 1.7-1.6 1-2.9 2.4-3.8 4.1z"/>
	<path id="Layer" class="s27" d="m389.2 244.1c-5.4 4.8-10.8 5.2-12 1-1.2-4.2 2.1-11.6 7.5-16.3l9.4-8.3c5.4-4.8 10.8-5.2 12-1 1.2 4.2-2.2 11.6-7.5 16.3z"/>
	<path id="Layer" class="s3" d="m295.3 289.2c8.4 0.9 14.8 4.8 17.5 15.4 1.9 7.5 1.3 16.3 2.6 23.9"/>
	<path id="Layer" class="s12" d="m391 169.2l-2.5 3.4c-7.9 10.3-10.8 14.1-2.4 40.6l1.3-1.2c-7.9-25-5.3-28.5 2.3-38.4l2.6-3.4c6.2-8.4 8.5-16.7 8.3-23.8l-1.8-2.8c1 7.3-1 16.4-7.8 25.6z"/>
	<path id="Layer" class="s26" d="m277.1 307.6c0.8-4.5-0.2-6.7-2.5-6.4-2.3 0.3-4.3 1.7-6.5 6.8 1.8 19.5 7 11.9 9-0.4z"/>
	<path id="Layer" class="s7" d="m359.3 118.4l15.7-2c2.5-0.3 3.4-6 4.5-13.2 1.1-7.2-0.2-20.3-0.2-20.3l-16.2 4.9z"/>
	<path id="Layer" class="s2" d="m402.9 78.2c-6.7-7.5-40.7-33.7-40.7-33.7l-8 11.5c0 0 11.3 12.5 19.4 20.9-16.4 1.3-46 5.2-46 5.2-21-4.2-29.9-6.2-29.9-6.2l21.6-20.5-7.9-11.8c0 0-20.6 12.6-32.2 21.7-11.6 9.1-13.5 20.3-2.5 28.8 11 8.5 14.7 11.1 14.7 11.1l70.9 7.3c20.8-5.8 33.2-12.1 40.7-18.6 7.5-6.5 6.6-8.2-0.1-15.7z"/>
	<path id="Layer" class="s3" d="m285.5 74.8c2.5 0.4 6.9 1.6 6.9 1.6"/>
	<path id="Layer" class="s1" d="m357.9 40.9l-7.1 11.9 8 8.2c2.6-2.9 5.2-8 4.4-15.7z"/>
	<path id="Layer" class="s7" d="m311.9 92.9c-9.6-11.8-13-16.9-15-22.8-1.4-4.3 7.1-1.7 18.1 1.6 11 3.3 9.3 6.4-3.1 21.2z"/>
	<path id="Layer" class="s7" d="m298.1 75.6c-10.1 11.3-10.3 25.1-9.2 44.4 0 0-17.4 17.5-14.9 32.8 2.5 15.3 26.3 21.9 53.4 21.6 21.8-0.2 24.2-5.3 26.2-15.6 1.2-6.7 2.1-14.4 2.7-20.4 0.6-6.3 2.2-12.5 4.7-18.3 13.4-31.1 2.6-42.3 2.6-42.3l-36.2 2.9z"/>
	<path id="Layer" class="s14" d="m306.1 59.4c-8.5 6.3-6.7 15.9 5.3 29.1l5.4 5.4 34.9-5.7c11.2-13.9 9-23.2 4.9-29 5.7-9.4 6.1-15.9 6-21.7-0.1-9.8-9-25.2-31.4-25-12.2 0.1-23 4.9-26.9 20.4-1.4 5.4-1.7 14.2 1.8 26.5z"/>
	<path id="Layer" class="s1" d="m349.3 25.2q0.4 0 0.8 0.2 0.3 0.1 0.6 0.4 0.3 0.3 0.4 0.7 0.1 0.4 0.1 0.8l-1.2 13.5c-0.4 3-1.8 5.8-4 7.9-2.3 2.1-5.2 3.3-8.2 3.4h-2.7c-3.2 0-6.3-1.1-8.7-3.2-2.4-2.1-4-4.9-4.4-8.1l-0.5-4.5c-0.1-0.5-0.3-1-0.7-1.4-0.4-0.3-1-0.5-1.5-0.5-0.6 0-1.1 0.2-1.5 0.6-0.4 0.3-0.6 0.9-0.7 1.4l-0.6 7.2c-0.2 2.4-1.3 4.6-3.1 6.2-1.7 1.6-4 2.6-6.4 2.6-1.4 0.1-2.9-0.2-4.2-0.8-1.3-0.5-2.5-1.3-3.5-2.4-0.9-1-1.7-2.3-2.1-3.7-0.4-1.3-0.6-2.8-0.4-4.2l1.2-13.6c0.1-0.5 0.3-1 0.7-1.4 0.4-0.4 1-0.6 1.5-0.6z"/>
	<path id="Layer" class="s1" d="m350.6 25.7l12 11.8v2.4l-11.9-8.3z"/>
	<path id="Layer" class="s7" d="m363.6 77.7c-5.6-5.3-12.3-9.5-19.5-12.2-6.5-2.3-8-2.9-9.5 0.8-1.5 3.7-3.1 7.9-3.7 9.3-0.6 1.4-7.7 6.2-12 9.8-4.3 3.6-8.8 11.3-8.8 11.3l45.6 3.5z"/>
	<path id="Layer" class="s7" d="m373.4 76.7l5.9 6.2c-2.7 8.4-4.4 18.9-5.4 30.6l-23.3 1.7 13-37.4z"/>
	<path id="Layer" class="s7" d="m298.1 75.6l-4.3-0.8q-1-0.1-2 0.1-0.9 0.3-1.7 1c-4.9 4.5-8.2 10.4-9.4 16.9-1.3 7.6-0.9 8.4 7.9 13.1 5.9 3.2 12-10.8 15.3-20.3 0.4-1 0.5-2.1 0.4-3.2-0.1-1.1-0.4-2.2-0.9-3.2-0.6-0.9-1.4-1.7-2.3-2.4-0.9-0.6-1.9-1-3-1.2z"/>
	<path id="Layer" class="s0" d="m302.3 153.4c-7.7-8.9-16.3-17-25.7-24l-22.4 11.7 7.3 21.8c0 0 6 7.6 11.6 13.6 5.6 6 15.7 6.2 34.3 7.8 7-12.5 3.8-20.4-5.1-30.9z"/>
	<path id="Layer" class="s3" d="m265.8 162.5l2-9.7"/>
	<path id="Layer" class="s20" d="m344.4 149.3c-1.8-4.9-7.3-8.8-31.9-10l-9.1-9.2-25.3 19.3c9 15.2 19.2 33.5 29.3 34.9 10.1 1.4 19.2 0.7 31.2-6.6 7.6-4.7 8.6-6.9 8.8-10.9-0.2-5.9-1.2-11.8-3-17.5z"/>
	<path id="Layer" class="s11" d="m371.6 150.1c-5.6 21.7-31.6 26.8-51.5 31.4-18 4.1-19.2 9.5-21.9 18.5l-13.6-3.6v-14l17.9-3.7c16-6.6 27.3-5.1 44.3-13.2 17-8.1 19.2-14.1 21.3-25.2 1.3-6.5 2.3-13.9 0.7-19l5.7 0.8c1.5 6.8 0.2 16.4-2.9 28z"/>
	<path id="Layer" class="s24" d="m219.4 171.6c-1.3 0.8-2.3 2-2.9 3.5-0.5 1.4-0.6 3-0.1 4.5 2.9 9.2 4.2 16.3 1.5 38.7-2.7 22.4-7.2 34.8-9.3 39.4q-0.2 0.4-0.2 0.9 0 0.4 0.3 0.8 0.2 0.4 0.6 0.7 0.3 0.2 0.8 0.3c11.2 1.7 28 1.5 46.4-0.9 3.1-0.4 6-1.6 8.5-3.5 2.5-2 4.4-4.5 5.6-7.4 4.7-11.7 8.6-23.8 11.6-36.1 6.7-27.6 5.9-27.1 20.3-33.8-1.1-9.9-1-19.4-11.8-20.8-12.6-1.6-26.4 4.6-46.2 10-4.5-4-8.6-6-25.1 3.7z"/>
	<path id="Layer" class="s28" d="m273.6 159.4c-8.3 2-17.7 5.4-29.1 8.5-3.3-2.9-6.4-4.8-14.3-1.7q-0.4 1.1-0.7 2.3c-3.6 17.9-10.4 47.2 10 45.6 20.4-1.6 22.7-13.7 22.1-24.7-0.6-11-1.9-17.1 0-20.3 1.9-3.2 8.6-8.8 12-9.7z"/>
	<path id="Layer" class="s1" d="m291.9 184.7c-1.4-11.7-2.3-17.3-5.5-19.5-3.2-2.2-4.3-1.5-8.5-0.6-4.2 0.9-9.5 2.5-16.3 4.5-12.7 3.7-28.5 8.4-34.5 8l-2-0.3c1.4-1.5 10-4.6 15.7-6.7l4-1.5q0.1 0 0.3-0.1 0.1-0.1 0.1-0.2 0.1-0.2 0.1-0.3 0-0.2 0-0.3l-0.8 0.2-0.7-0.6-3.6 1.3c-13.3 4.9-17.1 6.6-16.8 8.5 0.3 1.9 1.8 1.5 3.6 1.6 6.2 0.4 21.5-4.1 35.1-8.1 6.7-2 12.5-3.7 16.1-4.4 3.6-0.7 5.9-0.7 7.3 0.3 1.4 1 3.6 8 4.9 19.8z"/>
	<path id="Layer" class="s12" d="m297 39.3l19-13.8-7.1 0.1-11.4 8.3z"/>
	<path id="Layer" class="s12" d="m301.6 51c1.6 1 3.5 1.4 5.4 1.4 2.4 0 4.7-1 6.4-2.6 1.8-1.6 2.9-3.8 3.1-6.2l0.3-3.6z"/>
	<path id="Layer" class="s12" d="m349.3 25.2h-7.9l-19.5 14.1v1.5c0.2 1.5 0.7 3 1.5 4.4l27.1-19.5c-0.3-0.3-0.8-0.5-1.2-0.5z"/>
	<path id="Layer" class="s12" d="m350 40.8l0.6-6.5-22.2 16.1c2.1 1.1 4.4 1.7 6.7 1.7h2.7c3-0.1 5.9-1.3 8.2-3.4 2.2-2.1 3.6-4.9 4-7.9z"/>
	<path id="Layer" class="s3" d="m315.5 53.6c2.7-0.6 5.4-0.6 8.1 0"/>
	<path id="Layer" class="s1" d="m231.7 133c0.1 0.3 0.2 0.5 0.3 0.5 0.1 0 0.2-0.1 0.3-0.4"/>
	<path id="Layer" class="s0" d="m248.7 128.4c-10.8 4.2-25.9 13-38.9 20.3-7.2 4-9.4 6.4-5.6 13.7 3.8 7.3 11 14.3 16.4 19.1 5.4 4.8 8.4 2.8 12.4 0.2l28.5-18.8 15.1-33.5c-6.3-4.4-17-5.3-27.9-1z"/>
	<path id="Layer" class="s29" d="m218.2 168.1c4.6 0.9 4.6 1.4 10.3-2.3 5.7-3.7 34.4-21 37.3-22.9"/>
	<path id="Layer" class="s20" d="m290.4 117.8c-4.5-3.3-7.6-3.5-31.8-5.5-24.2-2-35.5-4.5-38.3-0.1-2.8 4.4-0.3 15.4 2.5 23.7 2.8 8.3 4.4 11 8.3 11.3 3.9 0.3 40.3 1.5 47 2.2l3.3 5.6 31.1-15.7c0 0-17.7-18.2-22.1-21.5z"/>
	<path id="Layer" class="s1" d="m213.6 161.4c-6-4.9-8.4-5.8-7.7-2.5 0.7 3.3 4.5 8.2 8.6 12.6 4.1 4.4 8.8 8.9 10.4 8.6 1.6-0.3-0.3-3.3-2.8-8.1-2.1-4-5-7.6-8.5-10.6z"/>
	<path id="Layer" class="s7" d="m220.2 168.7l-5 3.5-4.1 2.9c-4.9 3.6-2.9 6.5-2.5 9.9 0.4 3.4-0.7 5.9-3 5.9-2.3 0-5.7-9.6-8.1-14.2-2.4-4.6-10.3-8.3-14.4-11.8-1.7-1.5-2.1-4 0-4.8-0.9-1.3-2.1-4.6 0.9-5.6 3-1 7.5 4.5 10 6.2 2.5 1.7 5.6 3.3 7.9 2.3q2.4-1.1 4.6-2.4l3.4-2.1 3.7 2.9c2.5 2.1 4.7 4.6 6.6 7.3z"/>
	<path id="Layer" class="s23" d="m371.6 150.1c-5.6 21.7-31.6 26.8-51.5 31.4-19.9 4.6-19.3 10.6-22.9 21.5-3.6 10.9-10.8 38.2-15.8 50.6l66.5-39.1 27.2-51.6z"/>
	<path id="Layer" class="s5" d="m294.5 237.9c-2.2 7.7-4 13.5-5 17.7-1 4.2 3.6 3.8 8.5 2.4 4.9-1.4 7-3.5 6.2-7.8-0.8-4.3-7.3-21-9.7-12.3z"/>
	<path id="Layer" class="s1" d="m213.6 161.4l-3.7-2.9c-0.9-0.1-1.4-0.1-1.8 0.2-0.4 0.3-0.3 0.5-0.2 1 2.3-0.4 8 3.7 8.2 11.8 1.3 0.6 2 1 2.5 0.7 0.5-0.3 1.2-1.7 1.6-3.5-1.9-2.7-4.1-5.2-6.6-7.3z"/>
	<path id="Layer" class="s6" d="m204.8 186.5c-1-3.8-4.4-11.6-7.3-14.7-2.9-3.1-7.5-10.4-9-12.8-1.5-2.4-5.4-5.4-6.3-2.7-0.2 1.3 0.1 2.7 0.9 3.8-2.1 0.8-1.7 3.3 0 4.8 4.1 3.5 11.8 6.7 14.4 11.8 2.6 5.1 4.4 12.5 7.2 14l0.8 0.2c0.5-0.1 0.2-1.5-0.7-4.4z"/>
	<path id="Layer" class="s30" d="m319.2 6.5c-1.3 3.6-1.4 7.4-0.4 11.1 0.2 0.6 0.5 1.2 1.1 1.6 0.5 0.4 1.1 0.6 1.8 0.6h6.1q1 0 2-0.4 0.9-0.4 1.6-1.2c3.7-3.9 10.4-4.9 15.6-2.7l3.1-4.5c0.3-0.4 0.5-1 0.5-1.5-0.1-0.6-0.3-1.1-0.7-1.5-3-2.9-6.6-5-10.6-6.4-4-1.3-8.2-1.8-12.3-1.3-1.7 0.2-3.4 0.9-4.8 2-1.4 1.1-2.4 2.5-3 4.2z"/>
	<path id="Layer" class="s1" d="m374.3 108.8c-0.4 4.7 0.4 6.3 1.5 4.4 0.8-1.7 1.2-3.5 1.4-5.4z"/>
	<path id="Layer" class="s3" d="m362.3 78.1c-8.6 1.1-13.4 2.6-17.7 4.6"/>
	<path id="Layer" class="s3" d="m379.9 84.1l3.7 3.7"/>
	<path id="Layer" class="s3" d="m358 119.6c0 0-4.5 3.3-7.4 5.7"/>
	<path id="Layer" class="s31" d="m318.5 93.8l-0.8 11.8h-5.3q0.5-5.8 1.8-11.5 0.3-1 0.9-1.8 2-2.5 4.6-4.4l9.2-6.9c2.6-1.9 4.6-4.6 5.7-7.6 1.3-3.4 2.9-7.7 3.6-8.6"/>
	<path id="Layer" class="s32" d="m374.2 77.5c-4.2 10.6-8.8 28.6-5.3 37.2q0.5 1.2 1.3 2.3l2-0.2q-1.1-1.2-1.8-2.7c-3.2-7.7 0.8-24.3 5-35.3z"/>
	<path id="Layer" class="s32" d="m281.6 101.4q0.6 0.7 1.4 1.2c1-11.7 5.8-21.6 13.2-27.4l-2-0.3c-6.9 5.9-11.5 15.4-12.6 26.5z"/>
	<path id="Layer" class="s3" d="m361.9 118.9l-11.1 1.3"/>
	<path id="Layer" class="s12" d="m347 161.3c-4 2.7-12.5 6.8-17.9 8q-2 0.4-4.1 0.4c-2.2 0.1-4.3-0.4-6.3-1.3-1.9-1-3.6-2.4-4.9-4.1l-5.2-7.3c-4.5-6.4-10.2-14.3-14.3-20-0.1-0.2-0.1-0.3-0.2-0.4-6.2-8.7-9.5-12.5-14.1-13.2-4.6-0.7-17.9-1.9-41.2-3.7-5.8-0.4-6.7-0.3-7.8 2.3q0 0.1-0.2 0.3-0.1 0.1-0.2 0.1-0.2 0.1-0.3 0.1-0.2 0-0.3-0.1-0.3-0.1-0.4-0.4-0.2-0.3-0.1-0.6c1.6-3.9 4-3.7 9.4-3.3 13.6 1.1 36.9 2.9 41.4 3.7 4.5 0.8 9.4 5.9 15.1 13.9 0 0.1 0.1 0.2 0.2 0.3 4.1 5.7 9.7 13.7 14.3 20l5.2 7.4c2.8 3.9 7.9 5.5 13.6 4.3 5.7-1.2 15-6 18.1-8.2q0.2 0.9 0.2 1.8z"/>
	<path id="Layer" class="s1" d="m223.4 113.9c-2.9 2.7-1.4 8 0.6 15.3 2 7.3 4.5 13.9 5.8 13.7 1.3-0.2 2-2.8 2.3-6.6 0.3-3.8 0.2-10.6-1.3-15.7-1.5-5.1-5.2-8.8-7.4-6.7z"/>
	<path id="Layer" class="s7" d="m232.3 133.1l-7.4-0.9c-3.6-0.5-7.2-0.8-10.8-1-0.7 4.3-2.2 9.8-4.3 12-2.1 2.2-5.8 2.1-6.2-2.9-0.4-5-0.1-12.1-3.4-26.9-1.2-5.5-3.4-8.8-4.2-13-0.8-4.2 1.6-4.9 3.8-4.5-0.5-2.8-0.3-6.4 3.2-6.9 3.5-0.5 4.9 2.5 4.9 6.4 0.5-0.7 1.3-1.2 2.1-1.5 0.9-0.2 1.8-0.1 2.6 0.2 2.4 0.9 2.9 3.9 2.6 8.7-0.3 4.8-0.4 9.9 1.6 11.6 2 1.7 2.5 1.1 5.3 1.5l6.8 0.6q1.2 1.9 1.9 4.1c1 4.1 1.5 8.3 1.5 12.5z"/>
	<path id="Layer" class="s1" d="m232.3 133.1c0-4.2-0.5-8.4-1.5-12.5q-0.7-2.2-1.9-4.1h-0.9c2.5 3.2 4 11.6 0 16.1q0.9 0.7 1.9 1.1c0.8 0.1 1.7-0.1 2.4-0.6z"/>
	<path id="Layer" class="s6" d="m212.7 100c0.4-4.7-2.9-6.7-4.8-4.6 0-3.9-1.3-6.9-4.9-6.4-3.6 0.5-3.7 4.1-3.2 6.9-2.2-0.4-4.6 0.4-3.8 4.5 0.8 4.1 3 7.5 4.2 13 3.3 14.8 2.9 21 3.4 26.9 0 1.2 0.4 2.3 1.1 3.3 2.3 2.4 3.3-0.5 3.2-4.9q-0.1-10.3 1.2-20.6c1-8 3.3-13.4 3.6-18.1z"/>
	<path id="Layer" class="s7" d="m203.4 89c3.1-0.1 3.2 3.8 3.1 8.1l1.4-1.7c0-3.7-1.2-6.7-4.5-6.4z"/>
	<path id="Layer" class="s3" d="m283.7 138.2q-2.4 5.8-5.6 11.2c4.6-2 6.5-3 6.5-3"/>
	<path id="Layer" class="s3" d="m313.4 140.2l10.6 10.8c8.6 1.1 10.6 2.9 12.9 5.8"/>
	<path id="Layer" class="s3" d="m324 151l9.7 0.3"/>
	<path id="Layer" class="s1" d="m297.6 252.1c-1.3 3.3-3.5 5.5-4.9 5-1.4-0.5-1.4-2.1 0-5.2q0.9-1.9 1.5-3.9c0.8-2.9 2.3-3.4 3.4-2.9 1.1 0.5 1.4 3.6 0 7z"/>
	<path id="Layer" fill-rule="evenodd" class="s33" d="m254.2 211.5l30.5-9.3-1.6 6.3-14.9 4.6 13.5 1.4q-1.5 5.7-3 10.8c-6.2 1.5-13.6 3.6-23 6.5 6.5 1.1 13.2 2.3 19.7 3.8-1.2 3.6-2.4 6.9-3.5 9.7-7 0.9-14.7 2.1-23 3.5l3.5 0.9c6.1 1.7 11.1 3.3 14.5 4.5-1.6 1.7-3.5 3.1-5.7 4-8.6-2.9-17.3-5.1-26.2-6.7-8.7 1.9-17.7 4.2-26.6 7q0-0.4 0.2-0.8 1.3-2.8 2.2-5.8l8.2-2.3-7.3-0.2q1.2-3.7 2.4-9c6.2-2.4 12-4.4 17.3-6.3l-15.6-1.6c0.5-2.9 1-6 1.5-9.4l23.6-7.4-22.4-2.5c0.2-2 0.4-3.9 0.5-5.6zm-10.4 24.2c-7 2.3-14.8 5.1-23.7 8.4q7.7 0.6 14.7 1.8c12.4-2.7 24.3-4.5 34.5-5.9-8.6-1.8-17.4-3.2-25.5-4.3zm11-18.5l-32.8 10.3c5.9 0.6 13.2 1.4 21.3 2.5 15.1-5.1 26.1-8.2 34.6-10.3z"/>
	<path id="Layer" class="s33" d="m219.4 199.7c-0.1 1.9-0.1 4-0.3 6.4 25.6-0.8 54.9-3.9 65.9-5.2 0.6-2.6 1.2-4.8 1.8-6.7-7.9 1-39.8 4.7-67.4 5.5z"/>
	<path id="Layer" class="s1" d="m262.7 252.8l4.2 1.4c-1.6 1.7-3.5 3.1-5.7 4l-4-1.3c2.1-1 4-2.4 5.5-4.1z"/>
	<path id="Layer" class="s1" d="m272.1 234.9l3.3 0.7c-1.2 3.6-2.4 6.9-3.5 9.7l-4.4 0.6q2.8-5.3 4.6-11z"/>
	<path id="Layer" class="s1" d="m277.8 214.1l3.9 0.4q-1.5 5.7-3 10.8l-4 1c0.6-2 1.1-4.1 1.6-6.2 0.1-0.2 0.1-0.4 0.2-0.6 0.4-1.8 0.9-3.6 1.3-5.4z"/>
	<path id="Layer" class="s1" d="m280.4 203.5l4.3-1.3-1.6 6.3-4.3 1.3c0.5-2.1 1.1-4.2 1.6-6.3z"/>
	<path id="Layer" class="s1" d="m286.8 194.2c-0.6 1.9-1.2 4.1-1.8 6.7l-4.1 0.4 1.8-6.6z"/>
	<path id="Layer" class="s1" d="m210.8 251.9l5-1.4c-0.7 2.2-1.4 4.3-2.2 6.4l-5.2 1.6q0-0.4 0.2-0.8 1.3-2.8 2.2-5.8z"/>
	<path id="Layer" class="s1" d="m214.1 240.4l4.5-1.7c-0.7 3.8-1.5 7.3-2.5 10.8h-4.4q1.2-3.8 2.4-9.1z"/>
	<path id="Layer" class="s1" d="m217.3 223.1l3.7-1.2c-0.4 3.9-0.9 7.5-1.4 11l-3.8-0.4c0.5-2.9 1-6 1.5-9.4z"/>
	<path id="Layer" class="s1" d="m219 207.6l3.4 0.4-0.6 5.5-3.3-0.3c0.2-2 0.4-3.9 0.5-5.6z"/>
	<path id="Layer" class="s1" d="m223.2 199.6l-0.6 6.4h-3.5c0.2-2.4 0.2-4.5 0.3-6.4z"/>
	<path id="Layer" class="s5" d="m320.6 225l0.2 8.5q0 0.7 0.4 1.3 0.3 0.5 0.9 0.9 0.6 0.3 1.3 0.3 0.6-0.1 1.2-0.4c0.5-0.3 0.8-0.7 1-1.2 0.2-0.5 0.2-1.1 0.1-1.6l-2.9-10z"/>
	<path id="Layer" class="s33" d="m306 199.4c8 2.5 9.6 11 11.3 25.4q0.1 0.5 0.4 1 0.3 0.4 0.8 0.6 0.5 0.3 1 0.2 0.6-0.1 1-0.4l2.8-2.1c0.7-0.5 1.3-1.2 1.7-2.1 0.3-0.8 0.4-1.7 0.3-2.6-0.3-1.8-0.8-4.6-1.3-8.4-1.2-7.4-6.1-16.4-15.5-17.5-0.5-0.1-1 0.1-1.5 0.3-0.4 0.3-0.8 0.6-1 1.1-0.5 1.1-0.7 2.4-0.7 3.6q0 0.3 0.2 0.6 0.2 0.2 0.5 0.3z"/>
</svg>