<svg version="1.2" xmlns="http://www.w3.org/2000/svg" viewBox="0 0 473 360" width="473" height="360">
	<title>bg-rigth-svg</title>
	<style>
		.s0 { fill: #5865f2 } 
		.s1 { fill: #4b59f2 } 
		.s2 { fill: #3543de } 
		.s3 { fill: #fff4b3 } 
		.s4 { fill: #29cc7a } 
		.s5 { fill: #8cd9ff } 
		.s6 { fill: #bae8ff } 
		.s7 { fill: #000000 } 
		.s8 { fill: #eb459f } 
		.s9 { fill: none;stroke: #d11583;stroke-linecap: round;stroke-width: 2 } 
		.s10 { fill: none;stroke: #ffffff;stroke-width: 2 } 
		.s11 { fill: #912869 } 
		.s12 { fill: #611b46 } 
		.s13 { fill: none;stroke: #000000;stroke-linecap: round;stroke-linejoin: round;stroke-width: 2 } 
		.s14 { fill: none;stroke: #ffffff;stroke-linecap: round;stroke-width: 2 } 
		.s15 { fill: none;stroke: #000000;stroke-linecap: round;stroke-width: 2 } 
		.s16 { fill: #ffffff } 
		.s17 { fill: none;stroke: #2835bd;stroke-linecap: round;stroke-linejoin: round;stroke-width: 8 } 
		.s18 { fill: #d11583 } 
		.s19 { fill: none;stroke: #ffc619;stroke-linecap: round;stroke-width: 2 } 
		.s20 { fill: #2a39d4 } 
		.s21 { fill: #2331b5 } 
		.s22 { fill: #3442d9 } 
		.s23 { fill: #ff78b9 } 
		.s24 { fill: none;stroke: #3442d9;stroke-width: 2 } 
		.s25 { fill: none;stroke: #66bcff;stroke-linecap: round;stroke-width: 4 } 
		.s26 { fill: #ffe75c } 
		.s27 { fill: #45aaf7 } 
		.s28 { fill: #3f99f2 } 
		.s29 { fill: #de3a93 } 
		.s30 { fill: #66bcff } 
		.s31 { fill: none;stroke: #2330bf;stroke-width: 2 } 
		.s32 { fill: none;stroke: #2467d4;stroke-linecap: round;stroke-linejoin: round;stroke-width: 2 } 
		.s33 { fill: none;stroke: #a3d7ff;stroke-linecap: round;stroke-linejoin: round;stroke-width: 2 } 
		.s34 { fill: #adb4ff } 
		.s35 { fill: #15ad75 } 
		.s36 { fill: none;stroke: #15ad75;stroke-linecap: round;stroke-linejoin: round;stroke-width: 2 } 
		.s37 { fill: #ffc619 } 
		.s38 { fill: none;stroke: #ffc619;stroke-linecap: round;stroke-linejoin: round;stroke-width: 2 } 
		.s39 { fill: none;stroke: #bae8ff;stroke-linecap: round;stroke-linejoin: round;stroke-width: 2 } 
		.s40 { fill: none;stroke: #5865f2;stroke-width: 2 } 
	</style>
	<path id="Layer" class="s0" d="m449.3 223.5h-435.6v135.9h435.6z"/>
	<path id="Layer" class="s1" d="m13.7 265.5l435.6-35.1v-6.9h-435.6z"/>
	<path id="Layer" class="s2" d="m449.3 223.5h-3.2v135.9h3.2z"/>
	<path id="Layer" class="s2" d="m410 223.5h-3.2v135.9h3.2z"/>
	<path id="Layer" class="s2" d="m370.7 223.5h-3.2v135.9h3.2z"/>
	<path id="Layer" class="s2" d="m331.4 223.5h-3.2v135.9h3.2z"/>
	<path id="Layer" class="s2" d="m292 223.5h-3.2v135.9h3.2z"/>
	<path id="Layer" class="s2" d="m252.7 223.5h-3.2v135.9h3.2z"/>
	<path id="Layer" class="s2" d="m213.4 223.5h-3.2v135.9h3.2z"/>
	<path id="Layer" class="s2" d="m174.1 223.5h-3.2v135.9h3.2z"/>
	<path id="Layer" class="s2" d="m134.8 223.5h-3.2v135.9h3.2z"/>
	<path id="Layer" class="s2" d="m95.5 223.5h-3.2v135.9h3.2z"/>
	<path id="Layer" class="s2" d="m56.2 223.5h-3.2v135.9h3.2z"/>
	<path id="Layer" class="s2" d="m16.9 223.5h-3.2v135.9h3.2z"/>
	<path id="Layer" class="s3" d="m131.9 97.8c-4.1-13.6-6.3-20.1 1.1-24.1 7.4-4 29.9-1.3 40.4 1.2 10.5 2.5 12 5.1 5.1 15.4z"/>
	<path id="Layer" class="s4" d="m127.1 220.1c-1.6-40.4-0.6-74 0.7-91.9-6.7-4.4-9.8-7.8-11.1-9.7-0.3-0.4-0.4-0.8-0.4-1.3 0-0.4 0.2-0.9 0.5-1.2 10.6-13.3 19.7-24.9 29.2-30.3 9.5-5.4 22.5-6.8 43.2 13.8q0.3 0.4 0.3 0.9-0.1 0.5-0.4 0.9-2.5 2.5-5.2 4.6c4.2 7.5 10.3 18.9 10.3 18.9h4.8c3.1 0 6 1.2 8.2 3.4 2.2 2.2 3.4 5.1 3.4 8.2 0.1 9.3-2.1 20.5-6.4 34.9 19.2 15.6 14.5 48.7 14.5 48.7z"/>
	<path id="Layer" class="s5" d="m204.2 171.3c0.6-2.1 1.2-4 1.7-6l-15.1 8.4c0 0-23.9-16.1-64-26.1-0.7 18.6-0.8 43.8 0.3 72.5h91.6c0 0 4.7-33.2-14.5-48.8z"/>
	<path id="Layer" class="s6" d="m208 175q-1.8-2-3.8-3.7c0.6-2.1 1.2-4 1.7-6l-15.1 8.4c0 0-23.9-16.1-64-26.1-0.1 2.3-0.2 4.8-0.2 7.3 30.7 12.7 47.2 34.5 49.1 65.2h22.7c4-17.6 7.2-33 9.6-45.1z"/>
	<path id="Layer" class="s7" d="m138.9 135.9h0.4c0.2-0.2 0.4-0.3 0.5-0.6l8.7-28.1q0.1-0.2 0.1-0.4 0-0.2-0.1-0.4-0.1-0.1-0.2-0.3-0.2-0.1-0.4-0.2-0.1 0-0.3 0-0.2 0-0.4 0.1-0.2 0.2-0.3 0.3-0.1 0.2-0.1 0.4l-8.4 27.2q-5.5-2.3-10.4-5.6h-0.2c0 0.6-0.1 1.3-0.1 1.9q5.2 3.3 10.9 5.7z"/>
	<path id="Layer" class="s7" d="m176.1 90.7l-35.8 2.6c40 7.6 41.7 8.7 35.8-2.6z"/>
	<path id="Layer" class="s8" d="m195.9 195.5l-3.8-35.5c-0.1-0.6-0.4-1.2-0.9-1.6-0.4-0.4-1.1-0.6-1.7-0.6h-3.8l-1.7-3.3c-0.5-0.9-1.4-1.6-2.3-1.9-1-0.4-2.1-0.4-3.1 0-1 0.4-1.8 1.2-2.3 2.2-7.5 16.1-11.2 42.6-11.9 47.6q0 0.4 0.2 0.7 0.2 0.3 0.5 0.4l21.6 6.9q0.2 0.1 0.4 0.1 0.2 0 0.4-0.2 0.1-0.1 0.2-0.3 0.1-0.2 0-0.4l-0.8-10.1 8-2.5q0.5-0.1 0.8-0.6 0.3-0.4 0.2-0.9z"/>
	<path id="Layer" class="s9" d="m177.4 167.2l-3.3 34.5"/>
	<path id="Layer" class="s7" d="m167.2 116.7c1.3-0.5 1.6-3.2 0.5-5.8-1.1-2.7-3.1-4.4-4.4-3.8-1.4 0.5-1.7 3.1-0.6 5.8 1.1 2.7 3.1 4.4 4.5 3.8z"/>
	<path id="Layer" class="s10" d="m177.5 122.2c1.7-3.3 1.5-6.9-0.5-8-2.1-1.1-5.2 0.7-7 4.1-1.7 3.4-1.5 7 0.5 8.1 2.1 1.1 5.2-0.8 7-4.2z"/>
	<path id="Layer" class="s10" d="m192.2 122.3c1.8-3.4 1.6-7-0.5-8.1-2-1.1-5.2 0.8-6.9 4.1-1.8 3.4-1.6 7 0.4 8.1 2.1 1.1 5.2-0.8 7-4.1z"/>
	<path id="Layer" class="s7" d="m182.1 116.2c0.9-0.3 0.8-2.7-0.2-5.3-1.1-2.5-2.6-4.3-3.6-3.9-0.9 0.3-0.8 2.7 0.2 5.3 1.1 2.5 2.7 4.3 3.6 3.9z"/>
	<path id="Layer" class="s11" d="m191.6 142.4c-7.7 0-15.2-2.6-21.2-7.5-6.2-5.1-3.7-5.7 0.2-5.8 3.9-0.1 22.6 0.6 28 1.4 5.4 0.8 6.4 11.5-7 11.9z"/>
	<path id="Layer" class="s12" d="m191.6 142.4c-7.7 0-15.2-2.6-21.2-7.5-6.2-5.1-3.7-5.7 0.2-5.8 3.9-0.1 22.6 0.6 28 1.4 5.4 0.8 6.4 11.5-7 11.9z"/>
	<path id="Layer" class="s13" d="m191.2 153.6l-0.4-3.7c2.8-0.2 5.6-1 8.1-2.3"/>
	<path id="Layer" class="s8" d="m195.3 141.9c-5.4-5.2-12.7-9.1-26.2-8.2 11.6 10.7 23.7 8.9 26.2 8.2z"/>
	<path id="Layer" class="s10" d="m178.1 118.7h6.1"/>
	<path id="Layer" class="s14" d="m168.9 119.9l-25.8-10.5q-0.8-0.3-1.7-0.2-0.9 0.1-1.6 0.6-0.7 0.5-1.2 1.2-0.4 0.8-0.4 1.7c0 0.7 0.2 1.4 0.6 1.9 0.3 0.6 0.9 1 1.5 1.3l1.7 0.8"/>
	<path id="Layer" class="s15" d="m163.5 106.8c2 0.1 4.1-0.2 6-0.8"/>
	<path id="Layer" class="s15" d="m178.5 106.8c1.3 0 2.5-0.2 3.7-0.8"/>
	<path id="Layer" class="s3" d="m135.3 94.3c35.7-0.5 47.8-4.5 58-8.2 10.2-3.7 9.2-6.6 1.4-6.3-7.8 0.3-34.5 10.5-59.4 14.5z"/>
	<path id="Layer" class="s4" d="m126.5 158.1l-0.2 9.8 4.9-1.9c0 0 26.1-10.9 32.3-12.4 6.2-1.5 12.1 1.4 21 4.8 8.9 3.4 6.6 6.5 3.8 9.5-2.8 3-2.7 2.8-17.4 2.8-28.1 20.3-36.7 32.2-48.2 32.2-6.9 0-12.8-3.1-17.2-16.7-4.4-13.6 3.8-19.8 21-28.1z"/>
	<path id="Layer" class="s16" d="m224.4 169.3l-15-18.1-25.6 25.5 18.1 15.1c-0.2 1.7 0 3 0.9 3.9 2.7 2.7 10.6-0.8 17.7-7.8 7.1-7 10.5-15 7.8-17.7-0.9-0.9-2.2-1.1-3.9-0.9z"/>
	<path id="Layer" class="s16" d="m200 167.4c7-7.1 11.2-14.3 9.3-16.1-1.9-1.9-9.1 2.3-16.1 9.3-7.1 7-11.2 14.2-9.4 16.1 1.9 1.9 9.1-2.3 16.2-9.3z"/>
	<path id="Layer" class="s6" d="m198.2 165.7c6.4-6.4 10.7-12.4 9.6-13.5-1.1-1.1-7.2 3.1-13.5 9.5-6.4 6.4-10.7 12.4-9.6 13.5 1.1 1.1 7.2-3.2 13.5-9.5z"/>
	<path id="Layer" class="s4" d="m223 161.7c4.3 0.6 6 4.5 4.3 9.7q-0.3 0.8-1 1.4-0.6 0.6-1.5 0.8-0.9 0.2-1.7-0.1-0.9-0.2-1.5-0.9c-1-1-1.6-2.4-1.7-3.8-0.1-1.5 0.3-2.9 1.1-4.1z"/>
	<path id="Layer" class="s4" d="m215.5 158.7c-0.2 3.7-2.4 7.4-4 9.8-0.4 0.7-0.6 1.5-0.6 2.3 0.1 0.8 0.5 1.5 1 2.1l0.8 0.7q0.4 0.4 0.9 0.6 0.5 0.2 1.1 0.2 0.6 0 1.1-0.2 0.5-0.2 0.9-0.6c3-2.7 5.1-6.3 6.1-10.3 1.2-5.4-2.7-9.2-9.5-7.4z"/>
	<path id="Layer" class="s3" d="m135.3 94.3l12.2-1 29.3-5.8-7.3-7.2h-34.9z"/>
	<path id="Layer" class="s16" d="m194.4 131.2l-7-0.4c0.8 4.2 2.8 6.4 4.5 5.7 1.7-0.7 2.3-4.4 2.5-5.3z"/>
	<path id="Layer" class="s16" d="m172.8 130.3c0.9 4.8 2.7 7.3 4.4 6.5 1.7-0.8 2.1-4.8 2.4-6.4z"/>
	<path id="Layer" class="s17" d="m465.4 223.5h-461.1"/>
	<path id="Layer" class="s8" d="m184.4 174.7q0.1 0.3 0.4 0.5c0.1 0 0.1 0 0.1 0.1 0 0.1 7.2-3.5 13.4-9.7v-0.2l-3.9-3.8-3.2-3.3-4.2 0.2-8.2-3.1-0.3 0.7c3.5 1.2 4.2 13.8 5.9 18.6z"/>
	<path id="Layer" class="s18" d="m185.7 157.9q2.5 5.1 4.5 10.5 0.1 0.2 0.3 0.4 0.2 0.2 0.5 0.2h0.3q0.3-0.1 0.5-0.4 0.2-0.4 0.1-0.7c-0.1-0.3-2.3-6.1-4.3-10z"/>
	<path id="Layer" class="s18" d="m186.9 199.7h-0.2l-7.7 2.3q-0.2 0.1-0.4 0.2-0.1 0.2-0.2 0.4 0 0.2 0 0.5 0.1 0.2 0.3 0.4l6.8 5.9q0.1 0.1 0.2 0.2 0.1 0.1 0.3 0.1 0.2 0 0.4-0.1 0.2-0.1 0.3-0.2 0.1-0.1 0.2-0.3 0-0.2 0-0.4 0-0.2-0.1-0.3-0.1-0.2-0.2-0.3l-5.6-4.9 6-1.8z"/>
	<path id="Layer" class="s13" d="m126 167.6l-14.1 6.7"/>
	<path id="Layer" class="s19" d="m180.9 82.8c-15.4 4.1-31 7.4-46.8 9.9"/>
	<path id="Layer" class="s6" d="m193.4 178.6l10.8 9.9c0.3 0.3 0.8 0.5 1.2 0.5 0.5 0.1 0.9-0.1 1.3-0.3q0.4-0.3 0.6-0.7 0.2-0.4 0.2-0.8 0.1-0.5-0.1-0.9-0.2-0.4-0.5-0.7l-10.5-10.1q-0.5-0.4-1.2-0.5-0.6-0.1-1.2 0.2l-0.3 0.2q-0.4 0.2-0.7 0.6-0.2 0.5-0.3 0.9 0 0.5 0.2 0.9 0.1 0.5 0.5 0.8z"/>
	<path id="Layer" class="s13" d="m220.5 170.5c1.8-2.4 3-5.3 3.3-8.3"/>
	<path id="Layer" class="s20" d="m309.2 32.2c0.9-4.3-2-8.6-6.4-9.5-4.4-0.9-8.7 1.8-9.7 6.1-0.9 4.4 2 8.6 6.4 9.6 4.4 0.9 8.8-1.8 9.7-6.2z"/>
	<path id="Layer" class="s21" d="m362.7 106.5c7.3 0.4 16.1 3.4 27.1 15.6 6.2-6.2 9.2-4.5 17.5 2.6 8.3 7.1 26.1 20.6 30.5 25.1 4.4 4.5 7.7 14.2-4.3 21.5-12 7.3-33.3-6.1-44.5-13.9-11.2-7.8-26.3-16.9-26.3-16.9z"/>
	<path id="Layer" class="s22" d="m404 121.9c2.9 4.8 5.4 9.8 7.3 15.1 2.3 7.2-0.6 11.4-6.5 16.3-5.9 4.9-8.3 3.8-11.4 1.3q-0.3-0.2-0.6-0.1-0.3 0.1-0.6 0.3-0.2 0.3-0.1 0.6 0 0.4 0.2 0.6c1.6 1.4 3.6 2.2 5.7 2.3 2.5 0 5-1.2 8-3.7 5.1-4.3 9.9-9.2 6.9-18.2q-1.7-4.9-4.1-9.4c-0.6-1.2-1.5-2.3-2.5-3.2z"/>
	<path id="Layer" class="s15" d="m388.9 151.8c5.4 5.2 18.3 14.4 18.3 14.4"/>
	<path id="Layer" class="s23" d="m335.9 105.2c25.8-7.3 41.4-32.2 34.8-55.5-6.7-23.4-33-36.3-58.9-28.9-25.8 7.4-41.4 32.2-34.8 55.5 6.7 23.4 33 36.3 58.9 28.9z"/>
	<path id="Layer" class="s16" d="m289.8 58.2c0 9.6 4.6 18.1 10.3 19 5.7 0.9 7.1-4.1 7.3-13.4 0-2.4 0.1-4.8 0.3-7.3 0.6-8.6-2.5-13.3-7.6-14.1-5.1-0.8-10.3 6.2-10.3 15.8z"/>
	<path id="Layer" class="s18" d="m332.2 58.8c-1-1.3-1.6-2.8-1.7-4.5-0.1-1.6 0.3-3.2 1.1-4.6 8-13.6 15.3-14.1 20.5-13.8 5.2 0.3 9.2 5.2 4.9 17.6 6.1 6.6 3.6 12.7-5.1 13.5-8.7 0.8-13.4 0.1-19.7-8.2z"/>
	<path id="Layer" class="s21" d="m389.4 192.1c1.2-32.8-9.3-37-10.3-46.8-1-9.8-2-23-12.8-37.2 0 0 1.3-13.3 2-22.2q0-0.5-0.2-1-0.2-0.5-0.6-0.9-0.4-0.3-0.9-0.5-0.5-0.2-1-0.1c-7 1.1-14.1 1.6-21.2 1.3-12.2-0.4-28.7-1.6-46.3 15.5l5.7 8-0.4 0.7q-0.4 0.7-0.5 1.6-0.1 0.8 0.2 1.6 0.3 0.8 0.9 1.4 0.6 0.6 1.4 0.9l1.1 0.4c0 0-16.1 9.7-11.3 31.6 4.8 21.9-0.3 43.1 7.8 49.6 1.6 1.3 3.6 2.2 5.7 2.5 2 0.3 4.1 0.1 6.1-0.6l37.1 19.8c13.5 14.9 32.7 31.6 32.7 31.6l-14.8 35.3 15.6 39.3c13.3-32.6 30.8-64.6 33.9-79.4 3.1-14.8-6.9-23.5-29.9-52.4z"/>
	<path id="Layer" class="s24" d="m374.8 303.8c7.4-22.9 15.7-43.6 18.2-49.6 0.2-0.5 0.3-1.1 0.1-1.7-0.1-0.5-0.4-1-0.8-1.4-21.6-20.7-26.7-27.8-26.7-27.8"/>
	<path id="Layer" class="s7" d="m317.7 178l-13.4-9.1c0 0 8.1-11.1 12.6-17.8l1.1-1.7q0.1-0.2 0.2-0.3 0.1-0.1 0.3-0.1 0.1-0.1 0.3-0.1 0.2 0 0.3 0.1 0.3 0.1 0.4 0.4 0.2 0.3 0.1 0.6c-2.9 17.7-1.9 28-1.9 28z"/>
	<path id="Layer" class="s22" d="m368.1 87.6c-7.1 2.4-16.5 2.3-27.7 2-11.2-0.3-22.5-0.6-41 12.4l3 4.3c17.1-12.1 26.3-11.8 37.9-11.5 11.6 0.3 19.8 0.4 27.4-1.6 0.1-1.9 0.3-3.8 0.4-5.6z"/>
	<path id="Layer" class="s7" d="m362.7 190.5q0.3 0 0.6-0.2 0.3-0.3 0.3-0.6c0.2-16.1-5.9-32.5-8.5-38.8-2.7-6.5-4.4-13.4-4.9-20.4-0.8-9.1-2.7-16.2-3.9-19l3.4-26.8h-1.8l-3.4 27.1v0.2c1.1 2.4 3.1 9.5 3.9 18.7 0.5 7.2 2.2 14.2 4.9 20.9 2.7 6.2 8.7 22.3 8.5 38q0 0.4 0.3 0.6 0.2 0.3 0.6 0.3z"/>
	<path id="Layer" class="s21" d="m420.5 346.5q-0.5-0.8-1.4-1.3-0.8-0.4-1.8-0.5c0.6-3.6-0.1-6.6-4.8-7.7-5.4-1.2-11.1-1-16.4 0.5-9.2-23.6-27.4-85.8-40.1-131.2l-41.2-8.4c-0.4 11.3 7 36.2 12.4 57.6 5.4 21.4 17.3 66.2 20.6 82.4 2 9.8 4.9 21.5 4.9 21.5h38.2c11.2 0 25.6-4.4 28.4-6.6 2.8-2.2 2.2-4.5 1.2-6.3z"/>
	<path id="Layer" class="s24" d="m359.2 336.3c-11.8-37.2-29-87.2-39.5-138"/>
	<path id="Layer" class="s21" d="m339.6 192.1c0.2-2.9-3.8-13.8-8.6-21.7-4.8-7.9-7.2-13.5-11.7-10.9-4.5 2.6-15 9.4-15 9.4 0 0 8.1-11.1 12.6-17.8 9.7-14.6 6.3-34.7-10.4-36.3-13.7 7.6-15.8 14.1-28.8 37-13 22.9-20.7 47.3-6.7 57.4 14 10.1 27.5 3.1 52.7-8 10.9-4.7 15.8-6.1 15.9-9.1z"/>
	<path id="Layer" class="s22" d="m323.9 199.7c-2.8-1.3-5.3-5.5-8.3-14.1-5-14.5-6.3-18.9-3.2-21.9l-1.9 1.2q-0.7 0.4-1.1 1.1-0.4 0.7-0.4 1.5c-0.1 3.8 1.8 9.4 5 18.7 2 5.8 3.8 9.7 5.7 12.1 0.7 1 1.8 1.8 3 2.1 1.2 0.3 2.5 0.2 3.6-0.3-0.8 0.1-1.6-0.1-2.4-0.4z"/>
	<path id="Layer" class="s15" d="m331 170.4c-4.7-7.9-7.2-13.5-11.7-10.9-4.5 2.6-27.5 17.1-27.5 17.1"/>
	<path id="Layer" class="s25" d="m382.7 112.9c-3.1-20.8-4.3-41.8-3.5-62.8q0-1-0.4-1.9-0.4-1-1.2-1.6-0.8-0.6-1.8-0.9-1-0.2-2 0.1l-24.9 7"/>
	<path id="Layer" class="s16" d="m366.7 114.6c2.4 4.6 6.7 12.8 7.6 15.5 0.3 4.2 0.1 11.4 0.1 13.6q0 0.3 0.2 0.6 0.2 0.2 0.5 0.3c6.8 1 9.7 1.1 12.5 0.8 2.8-0.3 6.7-1.6 9.4-2.4 0.3-0.1 0.5-0.3 0.6-0.6 0.2-0.3 0.2-0.6 0.1-0.9-2.5-8.2-4.2-14.1-4.2-14.1-0.5-10.2-0.6-18.3-0.6-21q0-0.4-0.3-0.7-0.3-0.3-0.7-0.3c-9.3-0.6-12.5-0.6-15.9-0.4-3.4 0.2-4.5 2.2-9.2 7.8q-0.3 0.4-0.4 0.9 0 0.5 0.3 0.9z"/>
	<path id="Layer" class="s26" d="m396.7 142.2c0 0 1.1 0.4 0.3 0.8 0.3-0.1 0.5-0.3 0.6-0.6 0.2-0.3 0.2-0.6 0.1-0.9-2.5-8.2-4.2-14.1-4.2-14.1-0.5-10.2-0.6-18.3-0.6-21q0-0.4-0.3-0.7-0.3-0.3-0.7-0.3c-9.3-0.6-12.5-0.6-15.9-0.4q-1.1 0.1-2.1 0.5l8.8 18.6-0.6 17.1z"/>
	<path id="Layer" class="s23" d="m383.2 141.7c1.7 6.1 3.2 10.4 7 11.2 3.8 0.8 8.3-3.1 14.1-8.9 5.8-5.8 3.8-10.7 1.3-15.3-2.5-4.6-2.9-10.4-6-12.8-3.8-2.8-8-5.2-12.3-7.2-3.5-1.5-5.6-1.5-10.9 4.5-5.3 6-8.4 9.5-7.5 11.9 0.9 2.4 2.4 5 2.4 5-2.4 2.4-2.4 4.4-1.4 6.9 1 2.5 1.4 4.8 6.5 4.8z"/>
	<path id="Layer" class="s15" d="m371.5 129l14-13.2"/>
	<path id="Layer" class="s16" d="m384.3 134.2q-4.7 3-9.8 5.3c-0.1 1.9-0.1 3.4-0.1 4.2q0 0.3 0.2 0.6 0.2 0.2 0.5 0.3c6.8 1 9.7 1.1 12.5 0.8 2.8-0.3 6.7-1.6 9.4-2.4 0.3-0.1 0.5-0.3 0.6-0.6 0.2-0.3 0.2-0.6 0.1-0.9l-0.6-2c-4.5-1.2-8.8-3-12.8-5.3z"/>
	<path id="Layer" class="s26" d="m397.1 139.5c-4.5-1.2-8.8-3-12.8-5.3l-2 1.3-0.2 5.5q0 0.1 0.1 0.2 0.1 0.1 0.2 0.1l14.3 0.9c0 0 1.1 0.4 0.3 0.8q0.5-0.2 0.7-0.6c0-0.1 0.1-0.3 0.1-0.4q0-0.3-0.1-0.5l-0.6-1.9z"/>
	<path id="Layer" class="s23" d="m322.8 162c3.1-3.7 5.5-8 6.8-12.6 1-3 2.1-7.3 2.5-8.9 0.4-1.6 2.3-2.5 4.6-2 2.3 0.5 3.3 0.9 2.9 5-0.4 4.1-1.3 13.8-1.3 13.8z"/>
	<path id="Layer" class="s23" d="m368.8 164.4c-1.5-4.1-2.2-6.2-3.5-7.9-1.3-1.7-2.5-2-8.3-2.3-2.3-0.1-6.7 0-9.6 0.1 5.7-1.5 11.8-2.8 13.1-3.2 1.3-0.4 3.9-0.8 3-3.3-0.9-2.5-1.7-3.1-3.1-3.1q-5.4-0.1-10.7 0.9-7.7 1.5-15.1 4.3c-2.9 1.2-6.6 6.6-11.8 12.1 2.3 8.1 7.8 20.5 13.4 26.4 7.4-2.9 11.8-9.3 13.6-11.7 9.3-1.6 12.5-0.6 17.7 0.1 3.2 0.4 3.5-1.9 3.7-3 0.2-1.1-1.1-5.6-2.4-9.4z"/>
	<path id="Layer" class="s7" d="m292.8 58.3c-0.3 4.2 1.1 7.7 3.1 7.9 2 0.2 3-1.4 3.1-5.3q0.1-2.5 0.6-4.9c0.7-3.5-0.8-4.8-2.5-4.9-1.7-0.1-4 3.1-4.3 7.2z"/>
	<path id="Layer" class="s20" d="m327.1 8.9c2.1-0.4 4.2-0.1 6.1 1 1.8 1 3.2 2.7 3.9 4.7 1.5 4.7 2.8 11.8-5.2 13.1-3.4 0.5-6.9-1-12.3-5.2-3.9-3.1-8.1-4.2-17.2 0.5-4.9-3.4-2.5-12.1 10.8-7.7-5.8-7.5-4.1-12.7 0.1-14.2 4.2-1.5 10.5-0.7 13.8 7.8z"/>
	<path id="Layer" class="s7" d="m327.1 23.3c-2.9-3.6-5.3-8.4-7.3-12.5-2-4.1-4-8.4-6.2-9.7h-0.3q-1.2 0.4-2.1 1.3l0.7-0.2c1.9 0.2 4 4.6 6.3 9.3 2.3 4.7 4.5 9.1 7.5 12.9q1.5 1.8 3.4 3.2 1.4 0.3 2.8 0.1h0.1c-1.8-1.2-3.5-2.7-4.9-4.4z"/>
	<path id="Layer" class="s7" d="m337.2 24.7q-0.7 0.9-1.6 1.6c-0.5-6.6-3.4-12.9-8.3-17.4q1.1-0.3 2.3-0.1c4.2 4.3 6.9 9.9 7.6 15.9z"/>
	<path id="Layer" class="s27" d="m347.4 335.7c0.1 0.8 0.3 1.5 0.4 2.2 2 9.8 4.9 21.5 4.9 21.5h38.2c11.2 0 25.6-4.4 28.4-6.6 2.8-2.2 2.2-4.5 1.2-6.3q-0.5-0.8-1.4-1.3-0.8-0.5-1.8-0.5c0.6-3.6-0.1-6.6-4.8-7.7-5.4-1.2-11.1-1-16.4 0.5-1.4-3.7-3.1-8.3-4.9-13.6-16.8-0.3-33.9-1.7-43.8 11.8z"/>
	<path id="Layer" class="s27" d="m347.4 335.7c0.1 0.8 0.3 1.5 0.4 2.2 2 9.8 4.9 21.5 4.9 21.5h38.2c11.2 0 25.6-4.4 28.4-6.6 2.8-2.2 2.2-4.5 1.2-6.3q-0.5-0.8-1.4-1.3-0.8-0.5-1.8-0.5c0.6-3.6-0.1-6.6-4.8-7.7-5.4-1.2-11.1-1-16.4 0.5-1.4-3.7-3.1-8.3-4.9-13.6-16.8-0.3-33.9-1.7-43.8 11.8z"/>
	<path id="Layer" class="s5" d="m396.1 337.5l-1.3 0.3h-0.2l-10.9 2.2q-0.3-0.4-0.3-0.8c-0.8-2.8-1.3-5.8-1.3-8.7-0.1-6.1-3.3-6.7-8.8-6.6l0.3-0.7c0.7-1.9 2.1-3.6 3.8-4.8 1.7-1.1 3.7-1.7 5.8-1.7h9.1q0.8 0 1.5 0.4 0.8 0.3 1.3 0.9 0.5 0.6 0.7 1.4 0.2 0.8 0.1 1.6c-1.1 4.7-1.4 10.5-0.3 14.8q0.2 0.9 0.5 1.7z"/>
	<path id="Layer" class="s0" d="m357.5 343.6c-1.4-0.5-2.8-0.6-4.2-0.5-1.5 0.1-2.8 0.5-4.1 1.2q0.1 0.9 0.4 1.8c1.1-0.7 2.3-1.1 3.5-1.3 1.3-0.1 2.6 0 3.8 0.4 5.6 1.9 9.7 9.2 11.8 14.2h1.9c-2.2-5.2-6.6-13.6-13.1-15.8z"/>
	<path id="Layer" class="s7" d="m420.2 351.9l-0.9 0.9c-2.8 2.2-17.2 6.6-28.4 6.6h-22.8v-0.4c26.2-0.4 44-11.3 50.1-11.3 2 0 3.2 3 2 4.2z"/>
	<path id="Layer" class="s15" d="m395.1 138.1c1.4 1.9 3.5 3.3 5.8 3.8"/>
	<path id="Layer" class="s26" d="m351.2 130.4c-1 0-2-0.4-2.7-1-0.7-0.7-1.2-1.6-1.3-2.6l-0.8-9.1h1.8l5.3 8.7q0.3 0.6 0.3 1.3 0 0.7-0.3 1.3-0.4 0.7-1 1-0.6 0.4-1.3 0.4z"/>
	<path id="Layer" class="s15" d="m306.5 114.8h9.8"/>
	<path id="Layer" class="s7" d="m362.2 228.4c-1.2-4.3-3-10.4-3-10.4 8-5.2 15.7-11.1 22.9-17.4 0 0-8.3 18.4-12 35.5z"/>
	<path id="Layer" class="s15" d="m384.6 249.3l9.7-0.4"/>
	<path id="Layer" class="s7" d="m396.1 337.5l-1.3 0.3h-0.2q-6.5 1.5-12.8 3.9h-0.3q-0.3 0-0.5-0.2-0.2-0.1-0.3-0.4-0.1-0.2-0.1-0.3 0-0.2 0.1-0.4 0.1-0.1 0.2-0.2 0.1-0.2 0.3-0.2l2.2-0.9q6-2.1 12.2-3.4 0.1 0.9 0.5 1.8z"/>
	<path id="Layer" class="s7" d="m369.1 165.2l-0.3-0.8-0.4-1c-8.7-0.9-17.8-1.5-26.7-0.6q-0.2 0-0.3 0.1-0.2 0.1-0.3 0.2-0.1 0.2-0.2 0.3 0 0.2 0 0.4 0 0.2 0.1 0.3 0.1 0.2 0.2 0.3 0.2 0.1 0.3 0.2 0.2 0 0.4 0c9-1 18.3-0.3 27.2 0.6z"/>
	<path id="Layer" class="s16" d="m301.2 53.8l-5.8 2.8 8.1 3.7z"/>
	<path id="Layer" class="s16" d="m420.2 351.9c0.6-0.8-0.1-1.3-2-1.3-6.1 0-23.9 8.4-50.1 8.8h-15.4l-1.1-4.4c12 0 25.1-0.2 37.3-4.1 12.2-3.9 20.3-7.2 28.4-6.2q1 0 1.8 0.5 0.9 0.5 1.4 1.3c0.5 0.8 0.8 1.8 0.8 2.8-0.1 0.9-0.5 1.9-1.1 2.6z"/>
	<path id="Layer" class="s22" d="m388.9 319.9h1.2c2.8 0 4.7 0.1 5.3 0.8 0.6 0.7 0.3 1 0.1 2q0.1-0.9 0.4-1.7c0.1-0.6-0.1-1.3-0.4-1.8-0.4-0.5-1-0.8-1.6-0.9h-5c-4.6 0-9.8 0-12.5 5.9q0.9 0 1.8 0.3c2.3-4.7 6.4-4.6 10.7-4.6z"/>
	<path id="Layer" class="s13" d="m351.2 48.3c-1.3 2.1-3.6 4.5-8.7 5.5 7-0.8 10 3.1 10 3.1"/>
	<path id="Layer" class="s27" d="m220.9 359.4h-66.5v-14c0-3.6 1.4-7.1 3.9-9.7l6.6-6.4c0.8-0.8 1.5-1.8 2-2.8 0.4-1.1 0.7-2.2 0.7-3.4v-16c0-3.2 1.1-6.3 3.1-8.8 2-2.5 4.8-4.3 7.9-5 10.7-2.7 21.8-3.2 30.9-1.4 3.2 0.7 6.1 2.4 8.2 5 2.1 2.5 3.2 5.7 3.2 9z"/>
	<path id="Layer" class="s6" d="m171.5 332.6h0.4q0.2 0 0.5-0.1 0.2-0.1 0.3-0.3c3-5.8 3-14.8 3-24.4 0-9.6 0.9-13.2 7.3-15.6l-3.4 0.7c-0.9 0.2-1.7 0.6-2.4 1.1-0.7 0.6-1.3 1.3-1.7 2.1-1.4 2.8-1.6 6.5-1.6 11.7 0 9.4 0 18.2-2.8 23.6q-0.1 0.2-0.1 0.3-0.1 0.2 0 0.4 0.1 0.2 0.2 0.3 0.1 0.1 0.3 0.2z"/>
	<path id="Layer" class="s28" d="m220.9 305.9c0-3.3-1.2-6.5-3.2-9.1-2.1-2.5-5.1-4.3-8.3-4.9-5.3-0.9-10.8-1.2-16.2-0.9-12.8 0.9-10.9 9-10.9 20.8v10.1c0 3.4-0.9 6.7-2.6 9.6-1.9 3.1-2.4 6.9-2.4 14.3v13.6h43.6z"/>
	<path id="Layer" class="s2" d="m204.9 343.3c-0.6-17.4-8.5-32.6-16.5-47.1q-0.3-0.4-0.3-1-0.1-0.5 0.2-1 0.2-0.5 0.7-0.7 0.5-0.3 1-0.3h2q0.6 0 1.2 0.4 0.5 0.3 0.9 0.8c8.2 15.1 16.8 30.8 17.4 48.9 0.3 9.1-6.6 16.1-15.8 16.1h-6.6c9.2 0 16.1-7 15.8-16.1z"/>
	<path id="Layer" class="s2" d="m223.7 343.3c-0.6-17.4-8.6-32.6-16.5-47.1q-0.3-0.4-0.3-1-0.1-0.5 0.2-1 0.2-0.5 0.7-0.7 0.5-0.3 1-0.3h2q0.6 0 1.2 0.3 0.5 0.4 0.8 0.9c8.3 15.1 16.8 30.8 17.5 48.9 0.1 2.1-0.2 4.2-1 6.2-0.8 2-1.9 3.8-3.4 5.3-1.5 1.5-3.3 2.7-5.2 3.5-2 0.8-4.1 1.2-6.2 1.1h-6.6c2.1 0.1 4.2-0.3 6.2-1.1 1.9-0.8 3.7-2 5.2-3.5 1.5-1.5 2.6-3.3 3.4-5.3 0.8-2 1.1-4.1 1-6.2z"/>
	<path id="Layer" class="s29" d="m207.4 316.3l20.3 3.5c1.6 4.2 2.4 7 2.6 9.7 0.2 2.7-2.4 4.2-6.4 5.8-2.9 1.2-5.5 2.9-7.8 5-5.8 5.1-10.7 8.2-19.2 8.2-1.7 0-2.9 0.1-3.9-1-1.1-1.2-1.7-2.7-1.8-4.3-0.1-1.6 0.4-3.2 1.3-4.5 1-1.4 2.3-2.6 3.7-3.6 3-2 5.6-4.6 7.5-7.6 1.9-3.1 3.1-6.5 3.5-10.1 0.1-0.5 0.1-0.8 0.2-1.1z"/>
	<path id="Layer" class="s7" d="m223.9 335.3q2.5-1 4.7-2.6c1.9-1.8 1.1-3.5-3-3.4-4.1 0.1-8.4 3.3-17 8.6-8.6 5.3-21.4 10.6-11.7 10.6 9.7 0 13.4-3.1 19.2-8.2 2.3-2.1 4.9-3.8 7.8-5z"/>
	<path id="Layer" class="s30" d="m205.2 310.2c-1.5 0.3-1.3 2-0.5 3.7-1.6 3-0.6 4.2 2.2 5.4 5.7 1.9 11.6 2.7 17.6 2.4 6.1-0.6 5.7-2.6 5.1-4.6 2.1-1.8 1.8-3.9-0.3-4.8-2.1-0.9-13.4-4.4-24.1-2.1z"/>
	<path id="Layer" class="s16" d="m250.3 205.8h-26.2v14.3h26.2z"/>
	<path id="Layer" class="s30" d="m303.6 206.1c0.5 2 0.5 4.2 0.1 6.2-0.4 2-1.3 4-2.6 5.6-1.3 1.7-3 3-4.9 3.9-1.8 0.9-3.9 1.4-6 1.4h-28.6l-13.4 7.5v-0.4c-6.1 0-9.6-2-6.9-24.4-1.2-6.3-6.8-31.1-9.9-49.6-2.8-16.9 3.5-23.1 20.9-32.9 7.4-22 26.6-20.7 30.3-7.5 3.7 13.2 15.9 69.3 21 90.2z"/>
	<path id="Layer" class="s22" d="m249.9 237.8l-4.6 0.8q-0.3 0.1-0.6 0.3-0.3 0.2-0.5 0.5-0.2 0.3-0.2 0.6 0 0.4 0.1 0.7l1 2.5c-13.9 0.8-26 2-30.8 6.2-4.8 4.2-4.8 10.6-7 29.7-2.2 19.1-5.8 30.5 0 33.1 5.9 2.5 12.3 3.5 18.7 2.8 6.4-0.6 7-3.9 8.3-13.8 1.3-9.9 4.4-31.9 4.4-31.9h50.5c12.5 0 19.9-8.2 21.6-15.2 1.2-5-0.4-16.8-3.3-30.8h-45.9l-13.4 7.5 1 4.3z"/>
	<path id="Layer" class="s31" d="m292 223.5c5 25 6 43.8-13 52.4"/>
	<path id="Layer" class="s32" d="m252.7 210.9c0 0 2.1 12.3 5 26.9 3.3 16.8 2.4 16.2-20.5 17.7-20.1 1.3-18.3 0.3-22.5 23.2-1.6 9-4.4 25.3-3.6 34.3 0 0-0.9 5.3-0.7 6.4"/>
	<path id="Layer" class="s13" d="m238.7 269.3c-11.1-1.7-16.5-11.7-16.5-11.7"/>
	<path id="Layer" class="s13" d="m238.7 269.3c-2.3-1.3-4.3-3.1-5.8-5.2-1.6-2.1-2.8-4.5-3.4-7.1"/>
	<path id="Layer" class="s8" d="m303.6 206.1c-2.6-10.8-7.2-30.8-11.5-49.5l-22.4-1.7-17.3 12.2-10 13.4-5.1 6.9c1.8 8.6 3.3 15.6 3.9 18.6-2.7 22.4 0.8 24.4 6.9 24.4l17.7-7.5 41-2.9c-1-4.5-2.1-9.2-3.2-13.9z"/>
	<path id="Layer" class="s7" d="m257.8 194.8c1.2-7.4 0.6-13.8-1.5-14.1-2.1-0.4-4.8 5.4-6 12.9-1.3 7.4-0.6 13.8 1.4 14.1 2.1 0.4 4.8-5.4 6.1-12.9z"/>
	<path id="Layer" class="s18" d="m244.7 176.3c1-1.8 2.1-3.6 3.2-5.2 11.3-16.3 21.9-20.7 32.1-20.7h12.7q0.3 0 0.5 0.1 0.3 0.2 0.5 0.4 0.1 0.3 0.2 0.5 0 0.3-0.1 0.6l-1.7 4.6c-19.5 0-26.4-0.6-42.6 16.4l-7.1 7.5z"/>
	<path id="Layer" class="s7" d="m306.8 220h-33.1c-7.4 0-16.5-0.4-25.6 10.4l1.1 4.7c5.3-5.1 10.2-7.3 20.8-7.3h38.4z"/>
	<path id="Layer" class="s16" d="m249.5 173.6c-6.7 1.2-12 4.7-15 10.9-0.9 1.7-2.1 3.2-3.6 4.4l-18 13.1c-2 1.4-3.4 3.6-4 6-0.5 2.4-0.1 5 1.2 7.1 0.9 1.5 2.1 2.7 3.6 3.6 1.6 0.9 3.3 1.3 5 1.3h7.5c15.6-8.7 22.8-14.6 26.5-18 3.7-3.4 7.8-9.5 7.1-16.5-0.7-7-2.7-13.3-10.3-11.9z"/>
	<path id="Layer" class="s30" d="m255.1 121.9c-2.4-4-5.6-9.3-6.8-11.8-1.2-2.5-4.1-1.9 0 9.3-10-3.8-12.1-2.4-12.6-1-0.5 1.4 1.7 2.1 5.9 4.5 4.2 2.4 8.7 5.3 8.7 5.3z"/>
	<path id="Layer" class="s7" d="m265.5 122.2c1.7-2.1 2.3-4.4 1.3-5.2-1-0.8-2.1-0.4-3.6 1.6q-1 1.2-2.1 2.3c-1.7 1.6-1.3 2.8-0.5 3.5 0.8 0.7 3.2-0.1 4.9-2.2z"/>
	<path id="Layer" class="s22" d="m282.5 116c0 0-11.9-5.4-17-8.7-5.1-3.3-7.7-8.2-5.4-9.5 2.3-1.3 6.7 1.8 9.8 5.8-0.1-7.1 1.1-8.6 3-8.7 1.9-0.1 2.1 2.7 2.2 6.7 0.1 4 0.8 5.6 3.8 8.3 1.8 1.6 3.1 3.7 3.6 6.1z"/>
	<path id="Layer" class="s16" d="m238.8 149.2c-2.8 0-5.2-2.4-3-6.6 2.2-4.2 9.4-8.4 12.9-10 3.5-1.6 5.1 0 5.2 1.2 0.1 1.2-0.4 3-2.9 6.2-2.5 3.2-7.1 9.2-12.2 9.2z"/>
	<path id="Layer" class="s5" d="m241 148.9l-1.7 0.3-2.4-8.2 1.4-1.5z"/>
	<path id="Layer" class="s5" d="m247.2 144.5l-1.4 1.4-2.8-10.1 1.5-1z"/>
	<path id="Layer" class="s5" d="m252.8 137.5l-1.3 1.8-2-7 1.7-0.3z"/>
	<path id="Layer" class="s13" d="m250.6 131.1q2.8 1.3 5.7 2.3"/>
	<path id="Layer" class="s13" d="m248.1 242.5l11 13.4"/>
	<path id="Layer" class="s22" d="m256.7 238.5h-3.9l-1.2-5.5-1.1-5.1q1.5-1.5 3.2-2.8l1.3 5.6z"/>
	<path id="Layer" class="s22" d="m274 233.2h-3.9l-1.2-5.4-1.6-7.6h3.9l1.6 7.7z"/>
	<path id="Layer" class="s22" d="m305.9 233h-3.9l-1.2-5.2-1.6-7.8h3.9l1.6 7.8z"/>
	<path id="Layer" class="s16" d="m295.2 169.8c-1.9-1.5-4.3-2.4-6.7-2.5-5.2 0-8.1 5.1-9.1 10-0.2 0.8-0.6 1.5-1.2 2-0.6 0.5-1.4 0.8-2.2 0.8h-0.7q-0.7-0.1-1.3-0.5-0.5-0.4-0.9-1-0.4-0.6-0.5-1.2-0.2-0.7 0-1.4c1.9-9.5 8.1-15.6 15.9-15.6 1.3 0 2.5 0.5 3.5 1.3 1 0.8 1.7 1.9 2 3.2z"/>
	<path id="Layer" class="s21" d="m303.6 206.1q0.3 1.4 0.1 2.7-0.2 1.4-1 2.6-0.7 1.2-1.9 1.9-1.1 0.8-2.5 1.1l-2.5 0.2c-5.7 0-11.6-3.4-16.2-9.3q-0.4-0.6-0.6-1.2-0.2-0.7-0.1-1.4 0.1-0.7 0.5-1.3 0.3-0.6 0.9-1 0.6-0.4 1.2-0.6 0.7-0.2 1.4-0.1 0.7 0.1 1.3 0.5 0.6 0.3 1 0.9c3.2 4.1 7.1 6.6 10.6 6.6 3.5 0 5.6-2 7.1-4.6 0.2 1.1 0.5 2.1 0.7 3z"/>
	<path id="Layer" class="s0" d="m296.9 177.5c-0.7 0-1.4 0.2-2 0.6-0.5 0.5-1 1-1.2 1.7l-4.2 11.3c-0.4 1.1-0.4 2.2 0 3.3 0.4 1 1.1 1.9 2.1 2.5q0.7 0.4 1.4 0.5 0.8 0.1 1.5-0.2 0.8-0.3 1.3-0.8 0.5-0.6 0.8-1.3l2.7-7.3c-0.7-3.3-1.5-6.7-2.4-10.3z"/>
	<path id="Layer" class="s26" d="m291.6 196.9c-1-0.6-1.7-1.5-2.1-2.5-0.4-1.1-0.4-2.2 0-3.3l1.2-3.1q0.3-0.8 0.9-1.4 0.6-0.7 1.5-1 0.8-0.3 1.7-0.2 0.8 0.1 1.6 0.5c0.8 0.5 1.5 1.2 1.8 2.1 0.3 0.9 0.3 1.9 0 2.8l-1.6 4.3q-0.3 0.7-0.8 1.3-0.5 0.5-1.3 0.8-0.7 0.3-1.5 0.2-0.7-0.1-1.4-0.5z"/>
	<path id="Layer" class="s33" d="m238.6 212.9c-3.2 2.2-6.8 3.8-10.6 4.7"/>
	<path id="Layer" class="s34" d="m277.3 359.4h-17.5c-10.7 0-20.6-8.6-22.1-19.2-1.5-10.6 5.3-16.2 16.8-18.7l2-0.5c1.6-0.3 3-1.3 4-2.6 0.9-1.4 1.3-3.1 1.1-4.7-0.2-1.6-0.9-3.1-2.1-4.2-1.1-1.1-2.6-1.8-4.2-2l-2.9-0.3c-12.4-1.3-20.6-8.6-22.1-19.2-1.5-10.6 5.9-18.7 16.3-18.7h17.5c10.7 0 20.6 8.6 22.1 19.2l7.4 52.2c1.4 10.3-5.9 18.7-16.3 18.7z"/>
	<path id="Layer" class="s16" d="m297.6 359.4h-17.5c-10.7 0-20.6-8.6-22.1-19.2-0.6-3.9 0.2-7.9 2.4-11.2 2.1-3.3 5.4-5.7 9.2-6.8 1.4-0.4 2.6-1.3 3.4-2.5 0.8-1.2 1.1-2.7 0.9-4.1l-0.5-3.8c-0.2-1.2-0.7-2.3-1.6-3.2-0.8-0.9-1.9-1.5-3.1-1.8-9.1-1.9-16.8-9.6-18.1-18.8-1.3-9.2 5.9-18.7 16.3-18.7h17.5c10.7 0 20.6 8.6 22.1 19.2l7.4 52.2c1.4 10.3-5.9 18.7-16.3 18.7z"/>
	<path id="Layer" class="s30" d="m293.2 286.9q0.1 0.8-0.1 1.5-0.2 0.7-0.7 1.3-0.5 0.6-1.2 0.9-0.7 0.3-1.5 0.3h-18.4c-1.1 0-2.2-0.4-3-1.2-0.9-0.7-1.4-1.7-1.6-2.8v-0.6q-0.1-0.7 0.1-1.5 0.2-0.7 0.7-1.3 0.5-0.5 1.1-0.8 0.7-0.3 1.5-0.3h18.5c1.1 0 2.2 0.4 3 1.1 0.8 0.7 1.4 1.7 1.6 2.8z"/>
	<path id="Layer" class="s30" d="m285.2 294.3q0.1 0.8-0.1 1.5-0.2 0.7-0.7 1.3-0.5 0.6-1.1 0.9-0.7 0.3-1.5 0.3h-0.5c-1.1 0-2.2-0.4-3-1.2-0.9-0.7-1.4-1.7-1.6-2.8l-2.2-15.4q-0.1-0.8 0.1-1.5 0.2-0.7 0.7-1.3 0.5-0.5 1.2-0.8 0.7-0.3 1.5-0.3h0.5c1.1 0 2.2 0.4 3 1.1 0.8 0.7 1.4 1.7 1.6 2.8z"/>
	<path id="Layer" class="s34" d="m287.5 317.5q0 0.3 0 0.6-0.1 0.3-0.3 0.6-0.2 0.2-0.5 0.3-0.3 0.2-0.6 0.2h-0.3c-0.5 0-0.9-0.2-1.2-0.5-0.4-0.3-0.6-0.7-0.7-1.2l-0.9-6.4q0-0.3 0-0.6 0.1-0.3 0.4-0.6 0.2-0.2 0.5-0.3 0.3-0.1 0.6-0.1h0.2c0.5 0 0.9 0.2 1.2 0.4 0.4 0.3 0.6 0.7 0.7 1.2z"/>
	<path id="Layer" class="s30" d="m287.1 337.7c-1.1 0-2.2-0.4-3-1.1-0.8-0.7-1.4-1.7-1.6-2.8v-0.6q-0.1-0.7 0.1-1.5 0.2-0.7 0.7-1.3 0.5-0.5 1.1-0.8 0.7-0.3 1.5-0.3h0.5c1.1 0 2.1 0.4 3 1.1 0.8 0.7 1.4 1.6 1.6 2.7v0.7q0.1 0.8-0.1 1.5-0.2 0.7-0.7 1.3-0.5 0.5-1.2 0.8-0.7 0.3-1.5 0.3z"/>
	<path id="Layer" class="s23" d="m289.7 352.6h-0.5c-1.1 0-2.2-0.4-3-1.1-0.8-0.7-1.4-1.7-1.6-2.8v-0.9q-0.1-0.7 0.2-1.4 0.2-0.7 0.7-1.2 0.5-0.6 1.2-0.8 0.7-0.3 1.4-0.3h0.5c1.1 0 2.1 0.4 3 1.1 0.8 0.7 1.4 1.6 1.6 2.7v0.7q0.1 0.8-0.1 1.5-0.2 0.8-0.7 1.3-0.5 0.6-1.2 0.9-0.7 0.3-1.5 0.3z"/>
	<path id="Layer" class="s0" d="m287.6 337.7h-0.5c-1.1 0-2.2-0.4-3-1.1-0.8-0.7-1.4-1.7-1.6-2.8v-0.6q-0.1-0.7 0.1-1.5 0.2-0.7 0.7-1.3 0.5-0.5 1.1-0.8 0.7-0.3 1.5-0.3h0.5c1.1 0 2.1 0.4 3 1.1 0.8 0.7 1.4 1.6 1.6 2.7v0.7q0.1 0.7-0.1 1.5-0.2 0.7-0.7 1.2-0.5 0.6-1.2 0.9-0.7 0.3-1.4 0.3z"/>
	<path id="Layer" class="s30" d="m297.1 345.1c-1.1 0-2.2-0.4-3-1.1-0.8-0.7-1.4-1.7-1.6-2.8v-0.6q-0.1-0.7 0.1-1.5 0.2-0.7 0.7-1.3 0.5-0.5 1.1-0.8 0.7-0.3 1.5-0.3h0.5c1.1 0 2.1 0.4 3 1.1 0.8 0.7 1.4 1.6 1.6 2.7v0.7q0.1 0.7-0.1 1.5-0.2 0.7-0.7 1.3-0.5 0.5-1.1 0.8-0.7 0.3-1.5 0.3z"/>
	<path id="Layer" class="s0" d="m297.6 345.1h-0.5c-1.1 0-2.2-0.4-3-1.1-0.8-0.7-1.4-1.7-1.6-2.8v-0.6q-0.1-0.7 0.1-1.5 0.2-0.7 0.7-1.3 0.5-0.5 1.1-0.8 0.7-0.3 1.5-0.3h0.5c1.1 0 2.1 0.4 3 1.1 0.8 0.7 1.4 1.6 1.6 2.7v0.7q0.1 0.7-0.1 1.5-0.2 0.7-0.7 1.3-0.5 0.5-1.1 0.8-0.7 0.3-1.5 0.3z"/>
	<path id="Layer" class="s23" d="m279.7 345.3h-0.6c-1.1 0-2.2-0.5-3-1.2-0.8-0.7-1.3-1.7-1.5-2.8v-0.9q-0.1-0.7 0.1-1.4 0.3-0.7 0.7-1.2 0.5-0.6 1.2-0.8 0.7-0.3 1.4-0.3h0.6c1.1 0 2.1 0.5 2.9 1.2 0.8 0.7 1.4 1.6 1.6 2.7v0.6q0.2 0.8 0 1.5-0.2 0.8-0.7 1.4-0.5 0.6-1.2 0.9-0.7 0.3-1.5 0.3z"/>
	<path id="Layer" class="s4" d="m117.4 339.4l-9.7-5.4c7.6-12.5 16-24.6 25.1-36.1-17.9 6.5-36.7 14.6-57.5 14.6h-34.8c-2.1-4.3-2.7-8.7-2.7-15.3l42.5-15.5 16.1 3.3 0.5 4.6c15.4-3.9 31.3-8.4 42.8-11.1 14.5-3.4 19.4 3.9 11 16.1-16.2 23.6-33.3 44.8-33.3 44.8z"/>
	<path id="Layer" class="s35" d="m50.1 293.2c0 8.5 0 14.5 4.1 17.9 1 0.9 2.3 1.4 3.6 1.4h4.2c-10.2-1.7-10.2-7.2-10.1-19.3v-0.8c0-0.1-0.1-0.2-0.1-0.3l-1.7 0.6z"/>
	<path id="Layer" class="s36" d="m117.4 334.9c15.6-20.6 25.6-34.9 29.8-41.6 4.2-6.7 5.6-10.9-15.6-3.7-21.2 7.2-37.3 13.7-42 11.9-4.7-1.8-3-6.6-2.7-15.1"/>
	<path id="Layer" class="s26" d="m55 237.8c-7.2-11-13.1-22.8-17.6-35.2-0.6-2.1-0.8-4.2-0.4-6.4 0.3-2.1 1.2-4.1 2.5-5.8 7.3-8.8 16.9-13.5 29.7-15.7 1.4-0.2 2.8 0.2 3.9 1.1 15.2 13.3 19.7 28.3 22.3 42.9 0.1 0.8-0.1 1.7-0.4 2.5-0.4 0.7-0.9 1.4-1.6 1.9-7.5 4.6-11.5 6-11.5 6l1.5 11.1z"/>
	<path id="Layer" class="s26" d="m69.5 200.5q11.2 1 22.3 3.4l4.1 1.1q0.2 0.1 0.4 0.2 0.2 0.2 0.2 0.4 0.1 0.3 0 0.5 0 0.2-0.2 0.4l-0.9 0.8 1.6 6.2c0.5 1.9 0.4 3.9-0.4 5.7-0.7 1.8-2.1 3.3-3.8 4.3l-3.7 2.1z"/>
	<path id="Layer" class="s23" d="m72.7 207.9c1.9-1.4 1.5-5.2-0.8-8.6-2.4-3.4-5.9-5.1-7.8-3.7-1.9 1.3-1.5 5.1 0.9 8.5 2.3 3.4 5.8 5.1 7.7 3.8z"/>
	<path id="Layer" class="s7" d="m84.5 194c-1.2-1.1-2.5-1.4-3-0.9-0.5 0.5-0.2 1.3 0.9 2.1l1.3 1.3c0.9 1 1.6 0.8 2 0.3 0.4-0.5 0-1.8-1.2-2.8z"/>
	<path id="Layer" class="s26" d="m44.8 185.1c-1.6-16.1 0-21.5 3.4-26.2 3.4-4.7 5.4-3.3 4.8 2.9q-0.5 7.3 0.1 14.6c3-7.6 7.3-14.6 12.7-20.6 1.6-2 3.8-3.4 6.2-4.1 2.4-0.6 3.7 0.8 3 3.1-1.2 3.9-4.1 10.1-11.9 21.2l0.8 4.4z"/>
	<path id="Layer" class="s21" d="m91.5 247.3c8.5 2.9 2.5 29.5 2.5 29.5l1.2 0.9c1 0.8 1.7 1.8 2 3 0.3 1.2 0.1 2.5-0.4 3.6l-0.4 0.7c-5.9 0-9.8 0.5-17.8 6.2-8 5.7-13.1 6-21.3 6h-19.5v-6.6c-7.3-2.9-7.9-6.4-5.1-10.9 1.5-2.6 3.9-6.2 5.7-8.9 0.7-1 1.2-2.2 1.4-3.4 0.3-1.2 0.2-2.5 0-3.7-1.6-8.6-0.3-13.7-0.3-13.7l21.2-5.7 26.9-1.1z"/>
	<path id="Layer" class="s7" d="m90.9 271.8c2.5-0.7 3.4-5.7 2-11.2-1.5-5.5-4.7-9.4-7.3-8.7-2.6 0.7-3.5 5.7-2 11.2 1.5 5.5 4.7 9.4 7.3 8.7z"/>
	<path id="Layer" class="s16" d="m103.9 334.6c2.4-2.5 7.6-6.7 7.6-6.7 3.3 0 8.3 0.6 10.5 9.7l2.7 10.7c10.3 1.9 10.4 4.8 9 8.6v1.7q0 0.3-0.2 0.6-0.3 0.2-0.6 0.2h-17.2z"/>
	<path id="Layer" class="s23" d="m132.9 359.4q0.3 0 0.6-0.2 0.2-0.3 0.2-0.6v-1.7c-6.8 0-11.8 0.7-14.3-3.7q-4-8-7.1-16.4c-0.9-2.6-2.8-5.7-5.7-4.8l-2.7 2.6 11.8 24.8z"/>
	<path id="Layer" class="s7" d="m125.6 359.4c-1.8 0-3.6-0.4-5.2-1.3-1.6-0.8-2.9-2.1-3.9-3.6-3.7-5.6-6-12.3-7.4-16.4-1.4-4.1-5.9-5.7-6.3-0.5-0.4 5.2 2.3 9.2 6.5 19.6 0.2 0.7 0.7 1.2 1.2 1.6 0.6 0.4 1.3 0.6 2 0.6z"/>
	<path id="Layer" class="s26" d="m91.5 247.3l15.8 5.4c1.6-22.1 8.3-28.4 16.1-46 5.6-12.5 8.2-18.2 9.3-20.4q0.2-0.6 0.8-0.9 0.5-0.3 1.1-0.3h0.6q0.5 0 0.9 0.2 0.4 0.2 0.7 0.5 0.3 0.4 0.5 0.8 0.1 0.4 0.1 0.9c-1 5.9-2.6 11.7-4.7 17.3 4.7-3.2 6.8-3.2 9 0.1 5.4-2.8 7.4-2.9 9.3 1.3 1.9 4.2 1.6 5 0.6 8.4-1 3.4-2.5 3.7-4.8 3.7 0 23.2-1.5 31.9-12.4 47.5-9.7 13.9-10.2 12.2-23.4 8-7.6-2.4-15.1-5.1-20-7-2.8-1-5.2-3-6.7-5.6-1.6-2.7-2.1-5.7-1.6-8.7 0.9-4.2 3.7-6.9 8.8-5.2z"/>
	<path id="Layer" class="s16" d="m91.5 247.3q0.8-1 1.5-2 0.4-0.6 0.5-1.2 0.2-0.7 0-1.4-0.1-0.7-0.6-1.2-0.4-0.6-1-0.9c-27.3-15-36.9-16.8-51.9-16.8-9.7 0-9.2 2.5-8.3 7.1-6.9 6.4-6.8 8.6-2 14.9 4.8 6.3 6.3 8.8 10.8 8.8 4.5 0 15 0.1 24.2-4.6 9.2-4.7 13.6-7.1 26.8-2.7z"/>
	<path id="Layer" class="s7" d="m91.1 202c-11.1-1.9-22.4-3.1-22.5-3.1q-0.2 0-0.3 0-0.2 0.1-0.3 0.2-0.2 0.1-0.2 0.3-0.1 0.1-0.1 0.3 0 0.3 0.2 0.6 0.2 0.3 0.5 0.4c0.2 0 12 1.2 23.4 3.2-0.2-0.6-0.4-1.2-0.7-1.9z"/>
	<path id="Layer" class="s13" d="m68.8 198.4q-0.9 1.3-1.6 2.7"/>
	<path id="Layer" class="s13" d="m107.3 252.7l6.6 1.9"/>
	<path id="Layer" class="s37" d="m50.4 183.7q-0.2 0.6-0.4 1.1-0.1 0.2-0.3 0.4-0.2 0.2-0.5 0.2h-0.3q-0.2 0-0.3-0.2-0.1-0.1-0.2-0.2-0.1-0.2-0.1-0.4 0-0.1 0.1-0.3c0.1-0.3 2.2-6.5 4.1-10.9q0.1-0.3 0.4-0.4c0 1.2 0.1 2.3 0.2 3.5 0.1 1.2-2.1 5.4-2.7 7.2z"/>
	<path id="Layer" class="s3" d="m143.8 248c0.4-1.1 0.5-2.2 0.3-3.3-0.1-1.1-0.6-2.2-1.2-3.1q-0.7-0.8-1.5-1.4c-1.2-0.7-2.7-1.1-4.1-1-1.4 0.1-2.8 0.5-4 1.3 0.6-3.4 1.4-9.6 0.8-14.3-0.6-4.7-2.4-4.1-3.5-4.3-3.2-0.6-7.6 2.8-11.5 8.9-0.7-3.3-1.7-4.9-3.3-5.3-0.4-0.1-0.9 0-1.3 0.2-0.4 0.2-0.7 0.5-0.9 0.9l-1.5 3.6c2-3 3.1-3 3.4-3 0.3 0 1.6 0.8 2.3 6.2q0 0.3 0.2 0.5 0.2 0.2 0.5 0.2 0.3 0.1 0.6-0.1 0.2-0.1 0.4-0.3c4.1-7.5 8.5-10.5 10.8-10.1 2.3 0.4 1.9 1.7 2 2.9 0.9 6.1-1.1 15.8-1.1 15.9q0 0.3 0.1 0.5 0.1 0.3 0.3 0.4 0.3 0.1 0.6 0.1 0.3 0 0.5-0.2c2.2-2.3 5.6-2.9 7.7-1.5 2.1 1.4 3.1 6.5 0.8 12.8q1.6-3.1 2.6-6.5z"/>
	<path id="Layer" class="s38" d="m127.2 207.1c3.4-1.9 4.6-3 7.6 0 4-2.1 4.8-2.1 7 1.1"/>
	<path id="Layer" class="s7" d="m148.6 217.9c-0.1-2.8-0.4-7.1-0.5-7.2q0-0.2-0.1-0.3 0-0.2-0.2-0.3-0.1-0.1-0.3-0.2-0.1 0-0.3 0-0.2 0-0.3 0.1-0.2 0-0.3 0.2-0.1 0.1-0.2 0.3 0 0.1 0 0.3c0 0.1 0.4 4.4 0.4 7.2q0 0.1 0 0.2 0 0 0.1 0.1h1.6z"/>
	<path id="Layer" class="s7" d="m149.7 214.5h-2.2q-0.2 0-0.3-0.1-0.2 0-0.3-0.2-0.2-0.1-0.2-0.3-0.1-0.1-0.1-0.3 0-0.3 0.3-0.6 0.3-0.2 0.6-0.2h2.2q0.3 0 0.6 0.2 0.3 0.3 0.3 0.6 0 0.2-0.1 0.3 0 0.2-0.2 0.3-0.1 0.2-0.3 0.2-0.1 0.1-0.3 0.1z"/>
	<path id="Layer" class="s38" d="m118.5 272.4q3.2-0.1 6.3-0.6"/>
	<path id="Layer" class="s7" d="m54.5 294.2c-11.4-1.4-16.5-3.5-16.6-3.5h-0.1v1.8c1.7 0.6 6.8 2.2 16.5 3.5h0.1q0.3 0 0.6-0.2 0.3-0.3 0.3-0.6 0-0.2 0-0.4-0.1-0.1-0.2-0.3-0.1-0.1-0.3-0.2-0.1-0.1-0.3-0.1z"/>
	<path id="Layer" class="s13" d="m96.9 289.6c-2.6 0.8-4.9 2.3-6.7 4.2"/>
	<path id="Layer" class="s13" d="m133.7 297.9q6.1-2.7 11.7-6.2"/>
	<path id="Layer" class="s13" d="m135.7 297l5.3 0.2"/>
	<path id="Layer" class="s39" d="m32.6 230.4c16.6-1.6 28.4 2.2 44.7 9.5-16.3-1.1-35.5-1.7-35.5-1.7"/>
	<path id="Layer" class="s5" d="m28.1 312.5h66.6c1 0 1.9 0.4 2.5 1.1 0.7 0.6 1.1 1.5 1.1 2.5v43.3h-73.8v-43.3c0-1 0.4-1.9 1.1-2.5 0.6-0.7 1.5-1.1 2.5-1.1z"/>
	<path id="Layer" class="s27" d="m91.7 312.5h3c1 0 1.9 0.4 2.5 1.1 0.7 0.6 1.1 1.5 1.1 2.5v43.3h-10.2v-43.3q0-0.7 0.3-1.4 0.2-0.6 0.8-1.1 0.5-0.6 1.1-0.8 0.7-0.3 1.4-0.3z"/>
	<path id="Layer" class="s27" d="m34.3 345.6h44c0.8 0 1.6 0.3 2.1 0.9 0.6 0.5 0.9 1.3 0.9 2.1v10.8h-49.9v-10.8c0-0.8 0.3-1.5 0.8-2.1 0.6-0.5 1.3-0.9 2.1-0.9z"/>
	<path id="Layer" class="s40" d="m36.3 312.5v46.9"/>
	<path id="Layer" class="s40" d="m76.2 312.5v46.9"/>
	<path id="Layer" class="s7" d="m78.7 316.1h-44.9c-1.4 0-2.5 1.1-2.5 2.5v16c0 1.4 1.1 2.5 2.5 2.5h44.9c1.4 0 2.5-1.1 2.5-2.5v-16c0-1.4-1.1-2.5-2.5-2.5z"/>
	<path id="Layer" class="s0" d="m87.2 319.5q-0.2 0-0.4 0-0.2 0.1-0.3 0.3-0.2 0.1-0.3 0.3 0 0.2 0 0.4 0 0.4 0.3 0.7 0.3 0.3 0.7 0.3h11.1v-2z"/>
	<path id="Layer" class="s0" d="m86.2 324.8q0 0.2 0 0.4 0.1 0.2 0.3 0.3 0.1 0.2 0.3 0.3 0.2 0 0.4 0h11.1v-2h-11.1q-0.4 0-0.7 0.3-0.3 0.3-0.3 0.7z"/>
	<path id="Layer" class="s0" d="m86.2 329.2q0 0.4 0.3 0.7 0.3 0.3 0.7 0.3h11.1v-2h-11.1q-0.2 0-0.4 0-0.2 0.1-0.3 0.3-0.2 0.1-0.3 0.3 0 0.2 0 0.4z"/>
	<path id="Layer" class="s0" d="m26.3 320.5q0 0.4-0.3 0.7-0.3 0.3-0.7 0.3h-0.8v-2h0.8q0.4 0 0.7 0.3 0.3 0.3 0.3 0.7z"/>
	<path id="Layer" class="s0" d="m26.3 324.8q0 0.4-0.3 0.7-0.3 0.3-0.7 0.3h-0.8v-2h0.8q0.4 0 0.7 0.3 0.3 0.3 0.3 0.7z"/>
	<path id="Layer" class="s0" d="m26.3 329.2q0 0.4-0.3 0.7-0.3 0.3-0.7 0.3h-0.8v-2h0.8q0.4 0 0.7 0.3 0.3 0.3 0.3 0.7z"/>
	<path id="Layer" class="s3" d="m65.9 317.6h-29.3c-0.7 0-1.3 0.6-1.3 1.3v13.8c0 0.8 0.6 1.3 1.3 1.3h29.3c0.7 0 1.3-0.5 1.3-1.3v-13.8c0-0.7-0.6-1.3-1.3-1.3z"/>
	<path id="Layer" class="s23" d="m78.3 334.1h-8c-0.5 0-0.9 0.4-0.9 0.9v1.2c0 0.5 0.4 0.9 0.9 0.9h8c0.5 0 0.9-0.4 0.9-0.9v-1.2c0-0.5-0.4-0.9-0.9-0.9z"/>
	<path id="Layer" class="s4" d="m47.1 319.5c0 2.4 1 4.8 2.7 6.5 1.7 1.7 4.1 2.7 6.5 2.7 2.4 0 4.8-1 6.5-2.7 1.7-1.7 2.7-4.1 2.7-6.5q0-1-0.2-1.9h-18q-0.3 0.9-0.2 1.9z"/>
	<path id="Layer" class="s4" d="m38 334.1h15c-0.9-1.2-2-2.2-3.3-2.8-1.3-0.7-2.7-1.1-4.2-1.1-1.5 0-2.9 0.4-4.2 1.1-1.3 0.6-2.4 1.6-3.3 2.8z"/>
</svg>